<svg width="295" height="219" viewBox="0 0 295 219" fill="none" xmlns="http://www.w3.org/2000/svg">
<g clip-path="url(#clip0_3640_1361)">
<circle opacity="0.1" cx="147.5" cy="145.4" r="113.5" stroke="#16A34A"/>
<circle opacity="0.1" cx="147.5" cy="145.4" r="84.5" stroke="#16A34A"/>
<circle opacity="0.1" cx="147.5" cy="145.4" r="55.5" stroke="#16A34A"/>
<rect x="5.575" y="115.912" width="59.85" height="59.85" rx="29.925" fill="#FAFAFA"/>
<rect x="5.575" y="115.912" width="59.85" height="59.85" rx="29.925" stroke="url(#paint0_linear_3640_1361)" stroke-width="2.025"/>
<rect x="5.575" y="115.912" width="59.85" height="59.85" rx="29.925" stroke="url(#paint1_linear_3640_1361)" stroke-width="2.025"/>
<path d="M24.8335 157.837V150.504C24.8335 149.954 25.0294 149.483 25.4212 149.091C25.8127 148.7 26.2835 148.504 26.8335 148.504H44.1668C44.7168 148.504 45.1877 148.7 45.5795 149.091C45.9711 149.483 46.1668 149.954 46.1668 150.504V157.837H24.8335ZM31.5002 147.171C29.6557 147.171 28.0835 146.521 26.7835 145.221C25.4835 143.921 24.8335 142.349 24.8335 140.504C24.8335 138.66 25.4835 137.087 26.7835 135.787C28.0835 134.487 29.6557 133.837 31.5002 133.837H39.5002C41.3446 133.837 42.9168 134.487 44.2168 135.787C45.5168 137.087 46.1668 138.66 46.1668 140.504C46.1668 142.349 45.5168 143.921 44.2168 145.221C42.9168 146.521 41.3446 147.171 39.5002 147.171H31.5002ZM31.5062 141.504C31.7911 141.504 32.0279 141.408 32.2168 141.215C32.4057 141.022 32.5002 140.783 32.5002 140.498C32.5002 140.213 32.4037 139.976 32.2108 139.787C32.0182 139.599 31.7793 139.504 31.4942 139.504C31.2093 139.504 30.9724 139.601 30.7835 139.793C30.5946 139.986 30.5002 140.225 30.5002 140.51C30.5002 140.795 30.5966 141.032 30.7895 141.221C30.9822 141.41 31.2211 141.504 31.5062 141.504ZM39.5062 141.504C39.7911 141.504 40.0279 141.408 40.2168 141.215C40.4057 141.022 40.5002 140.783 40.5002 140.498C40.5002 140.213 40.4037 139.976 40.2108 139.787C40.0182 139.599 39.7793 139.504 39.4942 139.504C39.2093 139.504 38.9724 139.601 38.7835 139.793C38.5946 139.986 38.5002 140.225 38.5002 140.51C38.5002 140.795 38.5966 141.032 38.7895 141.221C38.9822 141.41 39.2211 141.504 39.5062 141.504Z" fill="#16A34A"/>
<rect x="38.5252" y="36.3628" width="59.85" height="59.85" rx="29.925" fill="#FAFAFA"/>
<rect x="38.5252" y="36.3628" width="59.85" height="59.85" rx="29.925" stroke="url(#paint2_linear_3640_1361)" stroke-width="2.025"/>
<rect x="38.5252" y="36.3628" width="59.85" height="59.85" rx="29.925" stroke="url(#paint3_linear_3640_1361)" stroke-width="2.025"/>
<path d="M57.7837 78.2878V70.9545C57.7837 70.4045 57.9796 69.9336 58.3714 69.5418C58.7629 69.1503 59.2337 68.9545 59.7837 68.9545H77.117C77.667 68.9545 78.1379 69.1503 78.5297 69.5418C78.9212 69.9336 79.117 70.4045 79.117 70.9545V78.2878H57.7837ZM64.4504 67.6212C62.6059 67.6212 61.0337 66.9712 59.7337 65.6712C58.4337 64.3712 57.7837 62.799 57.7837 60.9545C57.7837 59.1101 58.4337 57.5378 59.7337 56.2378C61.0337 54.9378 62.6059 54.2878 64.4504 54.2878H72.4504C74.2948 54.2878 75.867 54.9378 77.167 56.2378C78.467 57.5378 79.117 59.1101 79.117 60.9545C79.117 62.799 78.467 64.3712 77.167 65.6712C75.867 66.9712 74.2948 67.6212 72.4504 67.6212H64.4504ZM64.4564 61.9545C64.7412 61.9545 64.9781 61.8581 65.167 61.6652C65.3559 61.4725 65.4504 61.2336 65.4504 60.9485C65.4504 60.6636 65.3539 60.4267 65.161 60.2378C64.9684 60.049 64.7295 59.9545 64.4444 59.9545C64.1595 59.9545 63.9226 60.051 63.7337 60.2438C63.5448 60.4365 63.4504 60.6754 63.4504 60.9605C63.4504 61.2454 63.5468 61.4823 63.7397 61.6712C63.9324 61.8601 64.1712 61.9545 64.4564 61.9545ZM72.4564 61.9545C72.7412 61.9545 72.9781 61.8581 73.167 61.6652C73.3559 61.4725 73.4504 61.2336 73.4504 60.9485C73.4504 60.6636 73.3539 60.4267 73.161 60.2378C72.9684 60.049 72.7295 59.9545 72.4444 59.9545C72.1595 59.9545 71.9226 60.051 71.7337 60.2438C71.5448 60.4365 71.4504 60.6754 71.4504 60.9605C71.4504 61.2454 71.5468 61.4823 71.7397 61.6712C71.9324 61.8601 72.1712 61.9545 72.4564 61.9545Z" fill="#16A34A"/>
<rect x="118.075" y="3.4124" width="59.85" height="59.85" rx="29.925" fill="#FAFAFA"/>
<rect x="118.075" y="3.4124" width="59.85" height="59.85" rx="29.925" stroke="url(#paint4_linear_3640_1361)" stroke-width="2.025"/>
<path d="M137.333 45.3374V38.0041C137.333 37.4541 137.529 36.9832 137.921 36.5914C138.313 36.1998 138.783 36.0041 139.333 36.0041H156.667C157.217 36.0041 157.688 36.1998 158.079 36.5914C158.471 36.9832 158.667 37.4541 158.667 38.0041V45.3374H137.333ZM144 34.6707C142.156 34.6707 140.583 34.0207 139.283 32.7207C137.983 31.4207 137.333 29.8485 137.333 28.0041C137.333 26.1596 137.983 24.5874 139.283 23.2874C140.583 21.9874 142.156 21.3374 144 21.3374H152C153.845 21.3374 155.417 21.9874 156.717 23.2874C158.017 24.5874 158.667 26.1596 158.667 28.0041C158.667 29.8485 158.017 31.4207 156.717 32.7207C155.417 34.0207 153.845 34.6707 152 34.6707H144ZM144.006 29.0041C144.291 29.0041 144.528 28.9076 144.717 28.7147C144.906 28.5221 145 28.2832 145 27.9981C145 27.7132 144.904 27.4763 144.711 27.2874C144.518 27.0985 144.279 27.0041 143.994 27.0041C143.709 27.0041 143.472 27.1005 143.283 27.2934C143.095 27.4861 143 27.725 143 28.0101C143 28.295 143.097 28.5318 143.289 28.7207C143.482 28.9096 143.721 29.0041 144.006 29.0041ZM152.006 29.0041C152.291 29.0041 152.528 28.9076 152.717 28.7147C152.906 28.5221 153 28.2832 153 27.9981C153 27.7132 152.904 27.4763 152.711 27.2874C152.518 27.0985 152.279 27.0041 151.994 27.0041C151.709 27.0041 151.472 27.1005 151.283 27.2934C151.095 27.4861 151 27.725 151 28.0101C151 28.295 151.097 28.5318 151.289 28.7207C151.482 28.9096 151.721 29.0041 152.006 29.0041Z" fill="#16A34A"/>
<rect x="197.625" y="36.3628" width="59.85" height="59.85" rx="29.925" fill="black"/>
<rect x="197.625" y="36.3628" width="59.85" height="59.85" rx="29.925" fill="#FAFAFA"/>
<rect x="197.625" y="36.3628" width="59.85" height="59.85" rx="29.925" stroke="url(#paint5_linear_3640_1361)" stroke-width="2.025"/>
<rect x="197.625" y="36.3628" width="59.85" height="59.85" rx="29.925" stroke="url(#paint6_linear_3640_1361)" stroke-width="2.025"/>
<path d="M216.883 78.2878V70.9545C216.883 70.4045 217.079 69.9336 217.471 69.5418C217.863 69.1503 218.333 68.9545 218.883 68.9545H236.217C236.767 68.9545 237.238 69.1503 237.629 69.5418C238.021 69.9336 238.217 70.4045 238.217 70.9545V78.2878H216.883ZM223.55 67.6212C221.706 67.6212 220.133 66.9712 218.833 65.6712C217.533 64.3712 216.883 62.799 216.883 60.9545C216.883 59.1101 217.533 57.5378 218.833 56.2378C220.133 54.9378 221.706 54.2878 223.55 54.2878H231.55C233.394 54.2878 234.967 54.9378 236.267 56.2378C237.567 57.5378 238.217 59.1101 238.217 60.9545C238.217 62.799 237.567 64.3712 236.267 65.6712C234.967 66.9712 233.394 67.6212 231.55 67.6212H223.55ZM223.556 61.9545C223.841 61.9545 224.078 61.8581 224.267 61.6652C224.456 61.4725 224.55 61.2336 224.55 60.9485C224.55 60.6636 224.454 60.4267 224.261 60.2378C224.068 60.049 223.829 59.9545 223.544 59.9545C223.259 59.9545 223.022 60.051 222.833 60.2438C222.644 60.4365 222.55 60.6754 222.55 60.9605C222.55 61.2454 222.646 61.4823 222.839 61.6712C223.032 61.8601 223.271 61.9545 223.556 61.9545ZM231.556 61.9545C231.841 61.9545 232.078 61.8581 232.267 61.6652C232.456 61.4725 232.55 61.2336 232.55 60.9485C232.55 60.6636 232.454 60.4267 232.261 60.2378C232.068 60.049 231.829 59.9545 231.544 59.9545C231.259 59.9545 231.022 60.051 230.833 60.2438C230.644 60.4365 230.55 60.6754 230.55 60.9605C230.55 61.2454 230.646 61.4823 230.839 61.6712C231.032 61.8601 231.271 61.9545 231.556 61.9545Z" fill="#16A34A"/>
<rect x="230.575" y="115.912" width="59.85" height="59.85" rx="29.925" fill="#FAFAFA"/>
<rect x="230.575" y="115.912" width="59.85" height="59.85" rx="29.925" stroke="url(#paint7_linear_3640_1361)" stroke-width="2.025"/>
<rect x="230.575" y="115.912" width="59.85" height="59.85" rx="29.925" stroke="url(#paint8_linear_3640_1361)" stroke-width="2.025"/>
<path d="M249.833 157.837V150.504C249.833 149.954 250.029 149.483 250.421 149.091C250.813 148.7 251.283 148.504 251.833 148.504H269.167C269.717 148.504 270.188 148.7 270.579 149.091C270.971 149.483 271.167 149.954 271.167 150.504V157.837H249.833ZM256.5 147.171C254.656 147.171 253.083 146.521 251.783 145.221C250.483 143.921 249.833 142.349 249.833 140.504C249.833 138.66 250.483 137.087 251.783 135.787C253.083 134.487 254.656 133.837 256.5 133.837H264.5C266.345 133.837 267.917 134.487 269.217 135.787C270.517 137.087 271.167 138.66 271.167 140.504C271.167 142.349 270.517 143.921 269.217 145.221C267.917 146.521 266.345 147.171 264.5 147.171H256.5ZM256.506 141.504C256.791 141.504 257.028 141.408 257.217 141.215C257.406 141.022 257.5 140.783 257.5 140.498C257.5 140.213 257.404 139.976 257.211 139.787C257.018 139.599 256.779 139.504 256.494 139.504C256.209 139.504 255.972 139.601 255.783 139.793C255.595 139.986 255.5 140.225 255.5 140.51C255.5 140.795 255.597 141.032 255.789 141.221C255.982 141.41 256.221 141.504 256.506 141.504ZM264.506 141.504C264.791 141.504 265.028 141.408 265.217 141.215C265.406 141.022 265.5 140.783 265.5 140.498C265.5 140.213 265.404 139.976 265.211 139.787C265.018 139.599 264.779 139.504 264.494 139.504C264.209 139.504 263.972 139.601 263.783 139.793C263.595 139.986 263.5 140.225 263.5 140.51C263.5 140.795 263.597 141.032 263.789 141.221C263.982 141.41 264.221 141.504 264.506 141.504Z" fill="#16A34A"/>
<rect x="197.625" y="195.462" width="59.85" height="59.85" rx="29.925" fill="#FAFAFA"/>
<rect x="197.625" y="195.462" width="59.85" height="59.85" rx="29.925" stroke="url(#paint9_linear_3640_1361)" stroke-width="2.025"/>
<rect x="197.625" y="195.462" width="59.85" height="59.85" rx="29.925" stroke="url(#paint10_linear_3640_1361)" stroke-width="2.025"/>
<path d="M216.883 237.387V230.054C216.883 229.504 217.079 229.033 217.471 228.641C217.863 228.249 218.333 228.054 218.883 228.054H236.217C236.767 228.054 237.238 228.249 237.629 228.641C238.021 229.033 238.217 229.504 238.217 230.054V237.387H216.883ZM223.55 226.72C221.706 226.72 220.133 226.07 218.833 224.77C217.533 223.47 216.883 221.898 216.883 220.054C216.883 218.209 217.533 216.637 218.833 215.337C220.133 214.037 221.706 213.387 223.55 213.387H231.55C233.394 213.387 234.967 214.037 236.267 215.337C237.567 216.637 238.217 218.209 238.217 220.054C238.217 221.898 237.567 223.47 236.267 224.77C234.967 226.07 233.394 226.72 231.55 226.72H223.55ZM223.556 221.054C223.841 221.054 224.078 220.957 224.267 220.764C224.456 220.572 224.55 220.333 224.55 220.048C224.55 219.763 224.454 219.526 224.261 219.337C224.068 219.148 223.829 219.054 223.544 219.054C223.259 219.054 223.022 219.15 222.833 219.343C222.644 219.536 222.55 219.775 222.55 220.06C222.55 220.345 222.646 220.581 222.839 220.77C223.032 220.959 223.271 221.054 223.556 221.054ZM231.556 221.054C231.841 221.054 232.078 220.957 232.267 220.764C232.456 220.572 232.55 220.333 232.55 220.048C232.55 219.763 232.454 219.526 232.261 219.337C232.068 219.148 231.829 219.054 231.544 219.054C231.259 219.054 231.022 219.15 230.833 219.343C230.644 219.536 230.55 219.775 230.55 220.06C230.55 220.345 230.646 220.581 230.839 220.77C231.032 220.959 231.271 221.054 231.556 221.054Z" fill="#16A34A"/>
<rect x="38.5252" y="195.462" width="59.85" height="59.85" rx="29.925" fill="#FAFAFA"/>
<rect x="38.5252" y="195.462" width="59.85" height="59.85" rx="29.925" stroke="url(#paint11_linear_3640_1361)" stroke-width="2.025"/>
<rect x="38.5252" y="195.462" width="59.85" height="59.85" rx="29.925" stroke="url(#paint12_linear_3640_1361)" stroke-width="2.025"/>
<path d="M57.7837 237.387V230.054C57.7837 229.504 57.9796 229.033 58.3714 228.641C58.7629 228.249 59.2337 228.054 59.7837 228.054H77.117C77.667 228.054 78.1379 228.249 78.5297 228.641C78.9212 229.033 79.117 229.504 79.117 230.054V237.387H57.7837ZM64.4504 226.72C62.6059 226.72 61.0337 226.07 59.7337 224.77C58.4337 223.47 57.7837 221.898 57.7837 220.054C57.7837 218.209 58.4337 216.637 59.7337 215.337C61.0337 214.037 62.6059 213.387 64.4504 213.387H72.4504C74.2948 213.387 75.867 214.037 77.167 215.337C78.467 216.637 79.117 218.209 79.117 220.054C79.117 221.898 78.467 223.47 77.167 224.77C75.867 226.07 74.2948 226.72 72.4504 226.72H64.4504ZM64.4564 221.054C64.7412 221.054 64.9781 220.957 65.167 220.764C65.3559 220.572 65.4504 220.333 65.4504 220.048C65.4504 219.763 65.3539 219.526 65.161 219.337C64.9684 219.148 64.7295 219.054 64.4444 219.054C64.1595 219.054 63.9226 219.15 63.7337 219.343C63.5448 219.536 63.4504 219.775 63.4504 220.06C63.4504 220.345 63.5468 220.581 63.7397 220.77C63.9324 220.959 64.1712 221.054 64.4564 221.054ZM72.4564 221.054C72.7412 221.054 72.9781 220.957 73.167 220.764C73.3559 220.572 73.4504 220.333 73.4504 220.048C73.4504 219.763 73.3539 219.526 73.161 219.337C72.9684 219.148 72.7295 219.054 72.4444 219.054C72.1595 219.054 71.9226 219.15 71.7337 219.343C71.5448 219.536 71.4504 219.775 71.4504 220.06C71.4504 220.345 71.5468 220.581 71.7397 220.77C71.9324 220.959 72.1712 221.054 72.4564 221.054Z" fill="#16A34A"/>
<rect x="114.75" y="112.587" width="66.5" height="66.5" rx="33.25" fill="#22C55E"/>
<rect x="114.75" y="112.587" width="66.5" height="66.5" rx="33.25" fill="url(#paint13_radial_3640_1361)"/>
<rect x="114.75" y="112.587" width="66.5" height="66.5" rx="33.25" stroke="url(#paint14_linear_3640_1361)" stroke-width="2.25"/>
<path d="M126.352 143.019L127.866 147.599H127.926L129.438 143.019H130.597L128.545 148.837H127.244L125.196 143.019H126.352ZM131.43 148.837H130.305L132.354 143.019H133.655L135.706 148.837H134.581L133.027 144.212H132.982L131.43 148.837ZM131.467 146.556H134.536V147.403H131.467V146.556ZM141.254 143.019V148.837H140.316L137.575 144.874H137.526V148.837H136.472V143.019H137.415L140.154 146.985H140.205V143.019H141.254ZM146.3 144.877C146.252 144.724 146.187 144.586 146.104 144.465C146.022 144.342 145.924 144.237 145.808 144.15C145.695 144.063 145.564 143.997 145.416 143.954C145.268 143.908 145.107 143.886 144.933 143.886C144.621 143.886 144.342 143.964 144.098 144.121C143.854 144.279 143.661 144.51 143.521 144.815C143.383 145.118 143.314 145.487 143.314 145.923C143.314 146.362 143.383 146.734 143.521 147.039C143.66 147.344 143.852 147.576 144.098 147.735C144.344 147.892 144.63 147.971 144.956 147.971C145.251 147.971 145.507 147.914 145.723 147.8C145.941 147.687 146.108 147.526 146.226 147.318C146.343 147.107 146.402 146.861 146.402 146.579L146.641 146.616H145.061V145.792H147.422V146.491C147.422 146.989 147.316 147.42 147.104 147.783C146.892 148.147 146.6 148.427 146.229 148.624C145.857 148.819 145.431 148.917 144.95 148.917C144.414 148.917 143.944 148.797 143.538 148.556C143.135 148.314 142.82 147.97 142.592 147.525C142.367 147.078 142.254 146.548 142.254 145.934C142.254 145.464 142.321 145.045 142.453 144.675C142.588 144.306 142.775 143.993 143.016 143.735C143.256 143.476 143.538 143.279 143.862 143.144C144.186 143.008 144.538 142.94 144.919 142.94C145.241 142.94 145.541 142.987 145.82 143.082C146.098 143.175 146.345 143.307 146.561 143.479C146.779 143.652 146.958 143.856 147.098 144.093C147.238 144.33 147.33 144.591 147.374 144.877H146.3ZM152.109 143.019H153.163V146.82C153.163 147.237 153.064 147.604 152.867 147.92C152.672 148.236 152.397 148.483 152.043 148.661C151.689 148.837 151.275 148.925 150.802 148.925C150.326 148.925 149.912 148.837 149.558 148.661C149.203 148.483 148.929 148.236 148.734 147.92C148.539 147.604 148.441 147.237 148.441 146.82V143.019H149.495V146.732C149.495 146.975 149.548 147.191 149.654 147.38C149.762 147.569 149.914 147.718 150.109 147.826C150.304 147.932 150.535 147.985 150.802 147.985C151.069 147.985 151.3 147.932 151.495 147.826C151.692 147.718 151.844 147.569 151.95 147.38C152.056 147.191 152.109 146.975 152.109 146.732V143.019ZM155.055 148.837H153.93L155.979 143.019H157.28L159.331 148.837H158.206L156.652 144.212H156.607L155.055 148.837ZM155.092 146.556H158.161V147.403H155.092V146.556ZM160.097 148.837V143.019H162.279C162.726 143.019 163.101 143.097 163.404 143.252C163.709 143.407 163.939 143.625 164.094 143.906C164.252 144.184 164.33 144.509 164.33 144.88C164.33 145.253 164.251 145.577 164.092 145.852C163.934 146.124 163.702 146.336 163.396 146.485C163.089 146.633 162.712 146.707 162.265 146.707H160.711V145.832H162.123C162.384 145.832 162.598 145.796 162.765 145.724C162.932 145.65 163.055 145.543 163.134 145.403C163.216 145.261 163.256 145.086 163.256 144.88C163.256 144.674 163.216 144.497 163.134 144.352C163.053 144.204 162.929 144.092 162.762 144.016C162.595 143.939 162.38 143.9 162.117 143.9H161.151V148.837H160.097ZM163.103 146.201L164.543 148.837H163.367L161.952 146.201H163.103ZM167.272 148.837H165.3V143.019H167.312C167.889 143.019 168.386 143.136 168.8 143.369C169.217 143.6 169.537 143.932 169.761 144.366C169.984 144.8 170.096 145.318 170.096 145.923C170.096 146.529 169.983 147.05 169.758 147.485C169.534 147.921 169.211 148.255 168.789 148.488C168.369 148.721 167.863 148.837 167.272 148.837ZM166.354 147.925H167.221C167.626 147.925 167.964 147.852 168.235 147.704C168.506 147.554 168.71 147.332 168.846 147.036C168.982 146.739 169.05 146.368 169.05 145.923C169.05 145.478 168.982 145.108 168.846 144.815C168.71 144.519 168.508 144.299 168.241 144.153C167.976 144.005 167.646 143.931 167.252 143.931H166.354V147.925Z" fill="#EDFDF5"/>
<path d="M147.333 116.569C147.724 116.96 148.276 116.96 148.667 116.569L153.107 112.129C153.497 111.739 153.497 111.186 153.107 110.796L148 105.689L142.893 110.796C142.503 111.186 142.503 111.739 142.893 112.129L147.333 116.569ZM149 67.7749C149 67.2226 148.552 66.7749 148 66.7749C147.448 66.7749 147 67.2226 147 67.7749H149ZM148 111.462H149V67.7749H148H147V111.462H148Z" fill="#BBF7D0"/>
<path d="M147.333 116.569C147.724 116.96 148.276 116.96 148.667 116.569L153.107 112.129C153.497 111.739 153.497 111.186 153.107 110.796L148 105.689L142.893 110.796C142.503 111.186 142.503 111.739 142.893 112.129L147.333 116.569ZM228.55 100.725C228.55 100.173 228.102 99.7253 227.55 99.7253C226.998 99.7253 226.55 100.173 226.55 100.725H228.55ZM227.55 100.725H228.55H227.55ZM148 111.462H149H148ZM155.119 104.344V105.344H223.931V104.344V103.344H155.119V104.344ZM223.931 104.344V105.344C226.482 105.344 228.55 103.276 228.55 100.725H227.55H226.55C226.55 102.172 225.377 103.344 223.931 103.344V104.344ZM148 111.462H149C149 108.083 151.739 105.344 155.119 105.344V104.344V103.344C150.635 103.344 147 106.979 147 111.462H148Z" fill="#BBF7D0"/>
<path d="M177.268 145.171C176.878 145.561 176.878 146.114 177.268 146.504L181.708 150.944C182.099 151.335 182.651 151.335 183.042 150.944L188.149 145.837L183.042 140.731C182.651 140.34 182.099 140.34 181.708 140.731L177.268 145.171ZM226.062 146.837C226.615 146.837 227.062 146.39 227.062 145.837C227.062 145.285 226.615 144.837 226.062 144.837V146.837ZM182.375 145.837V146.837H226.062V145.837V144.837H182.375V145.837Z" fill="#BBF7D0"/>
<path d="M148.667 175.106C148.276 174.715 147.724 174.715 147.333 175.106L142.893 179.546C142.503 179.936 142.503 180.489 142.893 180.879L148 185.986L153.107 180.879C153.497 180.489 153.497 179.936 153.107 179.546L148.667 175.106ZM226.55 190.949C226.55 191.502 226.998 191.949 227.55 191.949C228.102 191.949 228.55 191.502 228.55 190.949H226.55ZM227.55 190.949H228.55H227.55ZM148 180.212H149H148ZM155.119 187.331V188.331H223.931V187.331V186.331H155.119V187.331ZM223.931 187.331V188.331C225.377 188.331 226.55 189.503 226.55 190.949H227.55H228.55C228.55 188.399 226.482 186.331 223.931 186.331V187.331ZM148 180.212H147C147 184.696 150.635 188.331 155.119 188.331V187.331V186.331C151.739 186.331 149 183.592 149 180.212H148Z" fill="#BBF7D0"/>
<path d="M148.667 175.106C148.276 174.715 147.724 174.715 147.333 175.106L142.893 179.546C142.503 179.936 142.503 180.489 142.893 180.879L148 185.986L153.107 180.879C153.497 180.489 153.497 179.936 153.107 179.546L148.667 175.106ZM67.4502 190.949C67.4502 191.502 67.8979 191.949 68.4502 191.949C69.0025 191.949 69.4502 191.502 69.4502 190.949H67.4502ZM68.4502 190.949H69.4502H68.4502ZM148 180.212H149H148ZM140.881 187.331V186.331H72.0687V187.331V188.331H140.881V187.331ZM72.0687 187.331V186.331C69.518 186.331 67.4502 188.399 67.4502 190.949H68.4502H69.4502C69.4502 189.503 70.6226 188.331 72.0687 188.331V187.331ZM148 180.212H147C147 183.592 144.261 186.331 140.881 186.331V187.331V188.331C145.365 188.331 149 184.696 149 180.212H148Z" fill="#BBF7D0"/>
<path d="M118.732 146.504C119.122 146.114 119.122 145.561 118.732 145.171L114.292 140.731C113.901 140.34 113.349 140.34 112.958 140.731L107.851 145.837L112.958 150.944C113.349 151.335 113.901 151.335 114.292 150.944L118.732 146.504ZM69.9375 144.837C69.3852 144.837 68.9375 145.285 68.9375 145.837C68.9375 146.39 69.3852 146.837 69.9375 146.837V144.837ZM113.625 145.837V144.837H69.9375V145.837V146.837H113.625V145.837Z" fill="#BBF7D0"/>
<path d="M147.333 116.569C147.724 116.96 148.276 116.96 148.667 116.569L153.107 112.129C153.497 111.739 153.497 111.186 153.107 110.796L148 105.689L142.893 110.796C142.503 111.186 142.503 111.739 142.893 112.129L147.333 116.569ZM69.4502 100.725C69.4502 100.173 69.0025 99.7253 68.4502 99.7253C67.8979 99.7253 67.4502 100.173 67.4502 100.725H69.4502ZM68.4502 100.725H69.4502H68.4502ZM148 111.462H149H148ZM140.881 104.344V103.344H72.0687V104.344V105.344H140.881V104.344ZM72.0687 104.344V103.344C70.6226 103.344 69.4502 102.172 69.4502 100.725H68.4502H67.4502C67.4502 103.276 69.518 105.344 72.0687 105.344V104.344ZM148 111.462H149C149 106.979 145.365 103.344 140.881 103.344V104.344V105.344C144.261 105.344 147 108.083 147 111.462H148Z" fill="#BBF7D0"/>
</g>
<defs>
<linearGradient id="paint0_linear_3640_1361" x1="35.5" y1="114.9" x2="35.5" y2="176.775" gradientUnits="userSpaceOnUse">
<stop stop-color="white" stop-opacity="0.5"/>
<stop offset="1" stop-opacity="0.2"/>
</linearGradient>
<linearGradient id="paint1_linear_3640_1361" x1="35.5" y1="114.9" x2="35.5" y2="176.775" gradientUnits="userSpaceOnUse">
<stop stop-color="#4ADE80"/>
<stop offset="1" stop-color="#86EFAC" stop-opacity="0.4"/>
</linearGradient>
<linearGradient id="paint2_linear_3640_1361" x1="68.4502" y1="35.3503" x2="68.4502" y2="97.2253" gradientUnits="userSpaceOnUse">
<stop stop-color="white" stop-opacity="0.5"/>
<stop offset="1" stop-opacity="0.2"/>
</linearGradient>
<linearGradient id="paint3_linear_3640_1361" x1="68.4502" y1="35.3503" x2="68.4502" y2="97.2253" gradientUnits="userSpaceOnUse">
<stop stop-color="#4ADE80"/>
<stop offset="1" stop-color="#86EFAC" stop-opacity="0.4"/>
</linearGradient>
<linearGradient id="paint4_linear_3640_1361" x1="148" y1="2.3999" x2="148" y2="64.2749" gradientUnits="userSpaceOnUse">
<stop stop-color="#4ADE80"/>
<stop offset="1" stop-color="#86EFAC" stop-opacity="0.4"/>
</linearGradient>
<linearGradient id="paint5_linear_3640_1361" x1="227.55" y1="35.3503" x2="227.55" y2="97.2253" gradientUnits="userSpaceOnUse">
<stop stop-color="white" stop-opacity="0.5"/>
<stop offset="1" stop-opacity="0.2"/>
</linearGradient>
<linearGradient id="paint6_linear_3640_1361" x1="227.55" y1="35.3503" x2="227.55" y2="97.2253" gradientUnits="userSpaceOnUse">
<stop stop-color="#4ADE80"/>
<stop offset="1" stop-color="#86EFAC" stop-opacity="0.4"/>
</linearGradient>
<linearGradient id="paint7_linear_3640_1361" x1="260.5" y1="114.9" x2="260.5" y2="176.775" gradientUnits="userSpaceOnUse">
<stop stop-color="white" stop-opacity="0.5"/>
<stop offset="1" stop-opacity="0.2"/>
</linearGradient>
<linearGradient id="paint8_linear_3640_1361" x1="260.5" y1="114.9" x2="260.5" y2="176.775" gradientUnits="userSpaceOnUse">
<stop stop-color="#4ADE80"/>
<stop offset="1" stop-color="#86EFAC" stop-opacity="0.4"/>
</linearGradient>
<linearGradient id="paint9_linear_3640_1361" x1="227.55" y1="194.449" x2="227.55" y2="256.324" gradientUnits="userSpaceOnUse">
<stop stop-color="white" stop-opacity="0.5"/>
<stop offset="1" stop-opacity="0.2"/>
</linearGradient>
<linearGradient id="paint10_linear_3640_1361" x1="227.55" y1="194.449" x2="227.55" y2="256.324" gradientUnits="userSpaceOnUse">
<stop stop-color="#4ADE80"/>
<stop offset="1" stop-color="#86EFAC" stop-opacity="0.4"/>
</linearGradient>
<linearGradient id="paint11_linear_3640_1361" x1="68.4502" y1="194.449" x2="68.4502" y2="256.324" gradientUnits="userSpaceOnUse">
<stop stop-color="white" stop-opacity="0.5"/>
<stop offset="1" stop-opacity="0.2"/>
</linearGradient>
<linearGradient id="paint12_linear_3640_1361" x1="68.4502" y1="194.449" x2="68.4502" y2="256.324" gradientUnits="userSpaceOnUse">
<stop stop-color="#4ADE80"/>
<stop offset="1" stop-color="#86EFAC" stop-opacity="0.4"/>
</linearGradient>
<radialGradient id="paint13_radial_3640_1361" cx="0" cy="0" r="1" gradientUnits="userSpaceOnUse" gradientTransform="translate(148 145.837) scale(60.8068 564.606)">
<stop stop-color="#4ADE80"/>
<stop offset="1" stop-color="#15803D"/>
</radialGradient>
<linearGradient id="paint14_linear_3640_1361" x1="148" y1="111.462" x2="148" y2="180.212" gradientUnits="userSpaceOnUse">
<stop stop-color="#DCFCE7"/>
<stop offset="1" stop-color="#BBF7D0" stop-opacity="0.2"/>
</linearGradient>
<clipPath id="clip0_3640_1361">
<rect width="294" height="218" fill="white" transform="translate(0.5 0.399902)"/>
</clipPath>
</defs>
</svg>
