<svg width="295" height="174" viewBox="0 0 295 174" fill="none" xmlns="http://www.w3.org/2000/svg">
<g clip-path="url(#clip0_3640_17180)">
<g filter="url(#filter0_d_3640_17180)">
<path d="M48.2305 37.4751L49.3467 37.5867L50.7519 40.7177L50.8219 40.7247L52.8195 37.9342L53.9357 38.0458L51.1771 41.7655L50.9213 44.3224L49.9418 44.2244L50.1976 41.6676L48.2305 37.4751ZM55.3787 44.8679C54.9208 44.8221 54.5316 44.6772 54.2113 44.4331C53.891 44.1891 53.6553 43.8689 53.5044 43.4727C53.3535 43.0764 53.3032 42.626 53.3537 42.1214C53.4044 41.6147 53.5431 41.1811 53.7697 40.8204C53.9964 40.4598 54.2909 40.1916 54.6532 40.0159C55.0155 39.8401 55.4257 39.7752 55.8836 39.821C56.3416 39.8668 56.7307 40.0117 57.051 40.2558C57.3714 40.4998 57.6069 40.821 57.7576 41.2194C57.9084 41.6178 57.9584 42.0703 57.9077 42.577C57.8572 43.0816 57.7187 43.5131 57.4923 43.8716C57.2659 44.2301 56.9715 44.4973 56.6091 44.673C56.2468 44.8487 55.8367 44.9137 55.3787 44.8679ZM55.4618 44.07C55.7586 44.0997 56.0123 44.0458 56.2231 43.9085C56.4338 43.7711 56.5989 43.5767 56.7183 43.3253C56.8398 43.074 56.9162 42.7915 56.9476 42.4778C56.9788 42.1661 56.9597 41.8751 56.8904 41.6048C56.8234 41.3326 56.7003 41.1072 56.5212 40.9287C56.3421 40.7502 56.1041 40.646 55.8073 40.6164C55.5083 40.5864 55.2523 40.6411 55.0393 40.7804C54.8283 40.9199 54.662 41.1163 54.5403 41.3697C54.4209 41.6211 54.3456 41.9027 54.3144 42.2143C54.283 42.5281 54.3009 42.82 54.3681 43.0901C54.4375 43.3605 54.5618 43.5838 54.7411 43.7602C54.9226 43.9368 55.1628 44.0401 55.4618 44.07ZM62.0239 43.3871L62.3099 40.5281L63.264 40.6236L62.7753 45.5083L61.8403 45.4148L61.9249 44.5688L61.8741 44.5638C61.7356 44.8133 61.5336 45.0126 61.2682 45.1616C61.0051 45.3087 60.6901 45.3639 60.3234 45.3272C60.0096 45.2959 59.7388 45.1992 59.5109 45.0372C59.2853 44.8733 59.1173 44.6477 59.0068 44.3604C58.8985 44.0733 58.8645 43.7284 58.9048 43.3256L59.2156 40.2186L60.1665 40.3137L59.8671 43.3062C59.8338 43.6391 59.8995 43.9133 60.0642 44.1289C60.229 44.3446 60.4587 44.4671 60.7534 44.4966C60.9315 44.5144 61.1129 44.4876 61.2978 44.4162C61.4848 44.3449 61.6456 44.2251 61.7803 44.0565C61.917 43.8882 61.9982 43.665 62.0239 43.3871Z" fill="#71717A"/>
<path d="M251.042 58.4159C251.28 58.4416 251.512 58.5106 251.741 58.6229C251.97 58.7352 252.172 58.9039 252.347 59.1289C252.523 59.352 252.652 59.6458 252.736 60.01C252.819 60.3743 252.834 60.8222 252.781 61.3536C252.73 61.8681 252.635 62.3202 252.497 62.7099C252.361 63.0979 252.188 63.4194 251.978 63.6744C251.77 63.9296 251.528 64.1148 251.254 64.2301C250.982 64.3456 250.683 64.3871 250.357 64.3545C250.033 64.322 249.75 64.229 249.508 64.0754C249.269 63.9201 249.079 63.7194 248.94 63.4733C248.803 63.2255 248.727 62.9466 248.713 62.6368L249.403 62.7058C249.438 62.9778 249.54 63.2097 249.707 63.4015C249.876 63.5917 250.114 63.702 250.419 63.7326C250.866 63.7773 251.238 63.6175 251.535 63.2532C251.834 62.8891 252.019 62.3509 252.09 61.6385L252.045 61.634C251.924 61.7818 251.785 61.9059 251.628 62.0063C251.471 62.1067 251.301 62.1792 251.118 62.2237C250.935 62.2681 250.743 62.2804 250.543 62.2604C250.212 62.2272 249.916 62.1148 249.655 61.9231C249.396 61.7297 249.199 61.4806 249.062 61.1757C248.927 60.869 248.878 60.5292 248.915 60.156C248.951 59.8017 249.062 59.4855 249.25 59.2074C249.44 58.9275 249.688 58.7144 249.993 58.568C250.301 58.4217 250.651 58.3711 251.042 58.4159ZM250.98 59.0378C250.743 59.0141 250.523 59.052 250.321 59.1517C250.12 59.2497 249.955 59.393 249.824 59.5817C249.694 59.7686 249.618 59.9827 249.594 60.2239C249.57 60.4651 249.6 60.6899 249.686 60.8984C249.774 61.1051 249.904 61.2761 250.077 61.4115C250.252 61.5451 250.459 61.6238 250.696 61.6475C250.875 61.6654 251.045 61.6473 251.207 61.593C251.369 61.5368 251.513 61.4533 251.64 61.3423C251.77 61.2296 251.875 61.0983 251.957 60.9485C252.038 60.7968 252.088 60.6352 252.105 60.4637C252.128 60.2376 252.094 60.0201 252.005 59.8113C251.917 59.6027 251.784 59.4276 251.606 59.2861C251.43 59.1447 251.221 59.062 250.98 59.0378ZM254.151 63.9061C254.012 63.8921 253.897 63.8302 253.807 63.7204C253.717 63.6105 253.679 63.4858 253.693 63.3464C253.707 63.2069 253.769 63.0922 253.879 63.0023C253.989 62.9125 254.113 62.8745 254.253 62.8884C254.392 62.9024 254.507 62.9643 254.597 63.0742C254.687 63.184 254.725 63.3087 254.711 63.4482C254.702 63.5405 254.67 63.623 254.615 63.6955C254.562 63.7683 254.494 63.8243 254.412 63.8637C254.332 63.9014 254.245 63.9155 254.151 63.9061ZM254.444 60.9775C254.305 60.9636 254.19 60.9017 254.1 60.7918C254.01 60.6819 253.972 60.5573 253.986 60.4178C254 60.2783 254.062 60.1637 254.172 60.0738C254.282 59.9839 254.406 59.9459 254.546 59.9599C254.685 59.9738 254.8 60.0357 254.89 60.1456C254.98 60.2555 255.018 60.3801 255.004 60.5196C254.995 60.6119 254.963 60.6944 254.908 60.7669C254.855 60.8397 254.787 60.8958 254.705 60.9351C254.625 60.9728 254.538 60.987 254.444 60.9775ZM258.386 59.2306L257.807 65.0199L257.106 64.9497L257.612 59.8954L257.578 59.892L256.07 60.6891L256.142 59.9768L257.685 59.1604L258.386 59.2306ZM261.386 65.4579C261.149 65.4304 260.916 65.3614 260.687 65.2509C260.459 65.1405 260.257 64.9728 260.081 64.7477C259.906 64.5208 259.777 64.2252 259.693 63.861C259.61 63.4948 259.595 63.0441 259.648 62.5089C259.7 61.9963 259.793 61.5469 259.929 61.1608C260.065 60.7728 260.238 60.4522 260.448 60.1991C260.658 59.9442 260.899 59.7589 261.171 59.6434C261.446 59.5281 261.746 59.4867 262.072 59.5194C262.396 59.5518 262.678 59.6457 262.917 59.8009C263.159 59.9545 263.348 60.1543 263.485 60.4003C263.623 60.6462 263.7 60.9213 263.717 61.2257L263.027 61.1567C262.989 60.8902 262.886 60.662 262.719 60.472C262.551 60.2821 262.315 60.1718 262.009 60.1413C261.561 60.0964 261.188 60.2561 260.891 60.6204C260.596 60.9848 260.412 61.5194 260.339 62.224L260.385 62.2285C260.506 62.0789 260.645 61.9548 260.802 61.8562C260.96 61.756 261.131 61.6836 261.314 61.6392C261.498 61.5947 261.688 61.5824 261.886 61.6021C262.218 61.6353 262.513 61.7486 262.772 61.942C263.03 62.1334 263.228 62.3826 263.365 62.6894C263.502 62.9943 263.552 63.3334 263.514 63.7065C263.479 64.0646 263.366 64.3845 263.176 64.6662C262.986 64.946 262.737 65.1591 262.429 65.3053C262.124 65.4498 261.776 65.5007 261.386 65.4579ZM261.448 64.836C261.686 64.8598 261.905 64.8217 262.105 64.7218C262.307 64.6221 262.473 64.4779 262.602 64.2891C262.734 64.1004 262.811 63.8836 262.836 63.6386C262.86 63.3993 262.828 63.1762 262.74 62.9695C262.654 62.7611 262.524 62.5891 262.349 62.4536C262.176 62.3183 261.971 62.2387 261.733 62.215C261.554 62.1971 261.384 62.2162 261.222 62.2724C261.061 62.3266 260.916 62.4092 260.787 62.52C260.659 62.631 260.555 62.7623 260.473 62.914C260.391 63.0638 260.342 63.2254 260.325 63.3988C260.302 63.6287 260.334 63.8489 260.421 64.0594C260.511 64.2701 260.643 64.4461 260.819 64.5875C260.998 64.729 261.207 64.8119 261.448 64.836ZM266.78 65.9176L267.359 60.1283L269.315 60.324C269.769 60.3694 270.132 60.4885 270.404 60.6813C270.678 60.8724 270.871 61.1135 270.983 61.4045C271.095 61.6954 271.134 62.0115 271.099 62.3526C271.065 62.6937 270.965 62.9967 270.797 63.2617C270.632 63.5268 270.397 63.7279 270.092 63.8649C269.787 64 269.409 64.045 268.959 63.9999L267.557 63.8597L267.619 63.2378L268.998 63.3758C269.309 63.4069 269.565 63.3782 269.764 63.2896C269.963 63.201 270.114 63.0696 270.217 62.8953C270.322 62.7193 270.386 62.5154 270.41 62.2836C270.433 62.0518 270.41 61.8401 270.342 61.6487C270.275 61.4574 270.152 61.3004 269.972 61.1777C269.792 61.0531 269.545 60.9751 269.23 60.9436L267.998 60.8203L267.481 65.9877L266.78 65.9176ZM272.412 60.6338L273.249 60.7175L274.735 65.7199L274.803 65.7267L277.251 61.1179L278.088 61.2017L277.509 66.9909L276.853 66.9253L277.293 62.5268L277.237 62.5212L274.988 66.7387L274.354 66.6753L272.985 62.0958L272.929 62.0902L272.489 66.4887L271.833 66.4231L272.412 60.6338Z" fill="#71717A"/>
<path d="M44.9768 67.8475C45.8565 59.0549 53.6974 52.6401 62.4901 53.5197L261.497 73.4291C270.289 74.3087 276.704 82.1497 275.824 90.9423L272.639 122.783L57.7119 101.281C48.9192 100.402 42.5044 92.5607 43.3841 83.7681L44.9768 67.8475Z" fill="#F5F5F4"/>
<path d="M57.5824 72.1237L58.3788 64.1634L63.1829 64.644L63.0974 65.4991L59.2572 65.1149L58.9881 67.8046L62.5796 68.1639L62.494 69.019L58.9026 68.6597L58.6319 71.365L62.5343 71.7554L62.4488 72.6105L57.5824 72.1237ZM65.2762 69.266L64.9169 72.8574L63.9996 72.7657L64.5969 66.7955L65.4831 66.8841L65.3898 67.817L65.4675 67.8247C65.6378 67.5356 65.8746 67.3132 66.1781 67.1578C66.4818 66.9997 66.859 66.9433 67.3099 66.9884C67.7141 67.0288 68.0596 67.1471 68.3461 67.3433C68.633 67.5369 68.8439 67.8092 68.9789 68.1603C69.1141 68.5089 69.1564 68.9371 69.1055 69.4449L68.726 73.2385L67.8087 73.1467L68.182 69.4154C68.2289 68.9463 68.1437 68.5688 67.9263 68.2827C67.7092 67.994 67.3881 67.8285 66.9632 67.7859C66.6704 67.7566 66.4023 67.7939 66.159 67.8978C65.9182 68.002 65.7196 68.1693 65.5631 68.3996C65.4066 68.63 65.3109 68.9188 65.2762 69.266ZM72.8152 73.7732C72.2555 73.7172 71.7867 73.5369 71.4089 73.2321C71.0311 72.9274 70.7566 72.5322 70.5854 72.0466C70.4141 71.561 70.3583 71.0202 70.4179 70.4242C70.4786 69.8178 70.6435 69.2939 70.9128 68.8524C71.1849 68.4085 71.5348 68.0758 71.9627 67.8543C72.3933 67.6304 72.8781 67.5454 73.4171 67.5994C73.8369 67.6413 74.2074 67.7569 74.5288 67.9461C74.8501 68.1353 75.1043 68.3806 75.2913 68.6819C75.4784 68.9833 75.5792 69.3231 75.5937 69.7015L74.6764 69.6097C74.6336 69.3306 74.5023 69.0741 74.2823 68.8401C74.0652 68.6037 73.7545 68.4654 73.3502 68.4249C72.9926 68.3891 72.6698 68.4511 72.3816 68.6107C72.0963 68.7679 71.8617 69.0075 71.6777 69.3293C71.4965 69.6488 71.3834 70.034 71.3383 70.4849C71.2922 70.9461 71.3245 71.355 71.4354 71.7116C71.5489 72.0684 71.7296 72.3547 71.9776 72.5706C72.2282 72.7867 72.5348 72.9129 72.8976 72.9492C73.136 72.9731 73.3565 72.9532 73.5592 72.8898C73.7618 72.8263 73.9383 72.7236 74.0886 72.5816C74.2389 72.4396 74.3534 72.2626 74.4322 72.0506L75.3495 72.1424C75.2624 72.4896 75.1024 72.7942 74.8694 73.0562C74.6393 73.3158 74.3488 73.5118 73.998 73.6442C73.6499 73.7743 73.2557 73.8173 72.8152 73.7732ZM78.9292 74.3849C78.3902 74.331 77.9301 74.1554 77.549 73.8582C77.1704 73.5612 76.8902 73.1707 76.7083 72.6866C76.529 72.2028 76.4702 71.6526 76.5319 71.0359C76.5941 70.414 76.7612 69.8824 77.033 69.4411C77.3074 69.0001 77.6596 68.6715 78.0895 68.4554C78.522 68.2396 79.0077 68.1587 79.5467 68.2126C80.0857 68.2665 80.5444 68.4419 80.923 68.7389C81.3042 69.0361 81.5843 69.428 81.7633 69.9143C81.9449 70.401 82.0046 70.9553 81.9424 71.5771C81.8807 72.1939 81.7128 72.7214 81.4386 73.1599C81.167 73.5985 80.815 73.9258 80.3825 74.1416C79.9526 74.3577 79.4682 74.4388 78.9292 74.3849ZM79.0116 73.5609C79.421 73.6018 79.7684 73.5306 80.0537 73.3471C80.339 73.1637 80.5622 72.9073 80.7234 72.578C80.8846 72.2486 80.9852 71.8844 81.0251 71.4854C81.065 71.0863 81.0387 70.7081 80.9463 70.3508C80.8538 69.9935 80.686 69.6953 80.4429 69.4564C80.1999 69.2175 79.8737 69.0775 79.4642 69.0366C79.0548 68.9956 78.7073 69.0682 78.4218 69.2542C78.1362 69.4402 77.9127 69.6992 77.7513 70.0312C77.5898 70.3631 77.4891 70.7286 77.4492 71.1276C77.4093 71.5267 77.4357 71.9036 77.5284 72.2583C77.6212 72.6131 77.7892 72.9086 78.0325 73.1449C78.2758 73.3813 78.6022 73.5199 79.0116 73.5609ZM84.3237 71.1716L83.9644 74.763L83.0471 74.6712L83.6444 68.701L84.5306 68.7897L84.4373 69.7225L84.515 69.7303C84.6853 69.4411 84.9221 69.2188 85.2256 69.0634C85.5293 68.9053 85.9065 68.8488 86.3574 68.8939C86.7616 68.9344 87.1071 69.0527 87.3936 69.2489C87.6805 69.4424 87.8914 69.7148 88.0264 70.0659C88.1616 70.4144 88.2038 70.8426 88.153 71.3505L87.7735 75.1441L86.8562 75.0523L87.2295 71.3209C87.2764 70.8519 87.1912 70.4744 86.9738 70.1883C86.7567 69.8996 86.4356 69.734 86.0107 69.6915C85.7179 69.6622 85.4498 69.6995 85.2065 69.8034C84.9657 69.9076 84.7671 70.0748 84.6106 70.3052C84.4541 70.5355 84.3584 70.8243 84.3237 71.1716ZM92.6434 69.6013L92.5656 70.3787L89.4717 70.0692L89.5495 69.2918L92.6434 69.6013ZM90.5943 67.9517L91.5116 68.0434L90.9423 73.7338C90.9164 73.9929 90.9345 74.191 90.9967 74.3281C91.0618 74.4628 91.1517 74.5582 91.2665 74.6142C91.3841 74.6678 91.5103 74.7014 91.645 74.7149C91.7461 74.725 91.8295 74.7281 91.8954 74.7242C91.9614 74.7177 92.0143 74.7125 92.0539 74.7086L92.1581 75.5513C92.0936 75.5684 92.0044 75.5831 91.8907 75.5952C91.7766 75.61 91.6341 75.6088 91.4631 75.5917C91.204 75.5658 90.9556 75.4847 90.718 75.3484C90.483 75.2123 90.2953 75.0221 90.1548 74.7778C90.017 74.5337 89.9654 74.238 90.0002 73.8908L90.5943 67.9517ZM93.426 75.7096L94.0232 69.7394L94.9094 69.828L94.8192 70.7298L94.8814 70.736C95.0198 70.4515 95.2407 70.2315 95.5442 70.076C95.8476 69.9206 96.1781 69.8607 96.5357 69.8965C96.6031 69.9033 96.6872 69.913 96.788 69.9257C96.8888 69.9384 96.9648 69.9499 97.0161 69.9603L96.9228 70.8931C96.8925 70.8822 96.8224 70.8635 96.7125 70.8368C96.6055 70.8077 96.4911 70.7871 96.3693 70.7749C96.0791 70.7459 95.8139 70.7809 95.5737 70.8799C95.3363 70.9765 95.1409 71.1244 94.9875 71.3237C94.8369 71.5206 94.7482 71.7538 94.7212 72.0233L94.3433 75.8013L93.426 75.7096ZM99.2413 76.4327C98.8629 76.3948 98.5267 76.2892 98.2326 76.1159C97.9388 75.9399 97.7148 75.7068 97.5606 75.4166C97.4067 75.1238 97.3492 74.783 97.3881 74.3943C97.4223 74.0523 97.5174 73.7818 97.6734 73.5828C97.8297 73.3812 98.0266 73.2308 98.2642 73.1315C98.5019 73.0323 98.7597 72.9665 99.0377 72.9341C99.3186 72.8994 99.5995 72.8778 99.8804 72.8692C100.248 72.8589 100.545 72.8533 100.773 72.8526C101.004 72.8495 101.174 72.8233 101.284 72.7741C101.396 72.7251 101.459 72.6268 101.474 72.4791L101.477 72.448C101.516 72.0645 101.44 71.756 101.252 71.5225C101.066 71.2893 100.762 71.1515 100.339 71.1093C99.9012 71.0655 99.5483 71.127 99.2804 71.2939C99.0124 71.4607 98.817 71.6479 98.6942 71.8555L97.8546 71.4574C98.0464 71.1102 98.282 70.8485 98.5613 70.6723C98.8435 70.4938 99.1428 70.3798 99.4592 70.3303C99.7784 70.2785 100.088 70.2676 100.389 70.2977C100.581 70.3169 100.799 70.3622 101.043 70.4338C101.29 70.503 101.523 70.6192 101.742 70.7825C101.964 70.946 102.138 71.1767 102.265 71.4747C102.393 71.7727 102.433 72.1588 102.385 72.633L101.992 76.5665L101.074 76.4747L101.155 75.6663L101.109 75.6616C101.033 75.785 100.916 75.9132 100.756 76.0464C100.596 76.1796 100.39 76.2859 100.139 76.3655C99.8878 76.445 99.5885 76.4674 99.2413 76.4327ZM99.4636 75.6227C99.8264 75.659 100.139 75.6183 100.402 75.5007C100.668 75.3833 100.875 75.2182 101.025 75.0055C101.177 74.793 101.266 74.5624 101.291 74.3137L101.375 73.4741C101.331 73.5169 101.241 73.5511 101.105 73.5767C100.972 73.6 100.818 73.6174 100.645 73.6288C100.474 73.6378 100.307 73.6447 100.144 73.6493C99.984 73.6517 99.8542 73.6544 99.7544 73.6575C99.5129 73.6647 99.285 73.693 99.0707 73.7422C98.8593 73.7891 98.6832 73.8748 98.5425 73.9995C98.4047 74.1218 98.3241 74.2995 98.3007 74.5327C98.2688 74.8515 98.3626 75.1042 98.5821 75.2911C98.8044 75.4756 99.0983 75.5861 99.4636 75.6227ZM103.666 76.734L104.263 70.7638L105.149 70.8525L105.059 71.7542L105.121 71.7604C105.26 71.4759 105.481 71.2559 105.784 71.1005C106.087 70.945 106.418 70.8852 106.776 70.921C106.843 70.9277 106.927 70.9374 107.028 70.9501C107.129 70.9628 107.205 70.9743 107.256 70.9847L107.163 71.9176C107.132 71.9067 107.062 71.8879 106.952 71.8612C106.845 71.8322 106.731 71.8116 106.609 71.7994C106.319 71.7703 106.054 71.8053 105.814 71.9043C105.576 72.0009 105.381 72.1489 105.227 72.3481C105.077 72.5451 104.988 72.7783 104.961 73.0478L104.583 76.8258L103.666 76.734ZM117.894 72.63L116.93 72.5336C116.901 72.2506 116.825 71.997 116.704 71.7729C116.585 71.549 116.432 71.3557 116.244 71.193C116.059 71.0279 115.848 70.8969 115.612 70.8C115.375 70.703 115.125 70.6414 114.861 70.6149C114.379 70.5667 113.93 70.6448 113.514 70.8492C113.101 71.0539 112.756 71.3818 112.478 71.833C112.202 72.2843 112.03 72.8547 111.961 73.5439C111.892 74.2332 111.948 74.8263 112.129 75.3233C112.312 75.8206 112.586 76.2105 112.95 76.4929C113.317 76.7757 113.741 76.9411 114.223 76.9893C114.487 77.0158 114.745 77.0049 114.996 76.9567C115.247 76.9085 115.479 76.8232 115.693 76.7006C115.909 76.5757 116.098 76.4153 116.259 76.2194C116.423 76.0212 116.547 75.7876 116.632 75.5187L117.595 75.6151C117.482 76.0147 117.314 76.3655 117.09 76.6676C116.866 76.9698 116.6 77.2193 116.293 77.4162C115.985 77.6105 115.648 77.7483 115.282 77.8293C114.917 77.9107 114.535 77.9313 114.133 77.8911C113.454 77.8232 112.867 77.5969 112.371 77.2124C111.876 76.8278 111.507 76.3146 111.265 75.6727C111.023 75.0309 110.944 74.2902 111.028 73.4506C111.112 72.6111 111.336 71.9007 111.701 71.3195C112.065 70.7383 112.528 70.3083 113.09 70.0295C113.652 69.7507 114.272 69.6452 114.951 69.7132C115.353 69.7534 115.724 69.8494 116.065 70.0012C116.408 70.1534 116.711 70.3564 116.973 70.6103C117.236 70.8617 117.447 71.1576 117.607 71.4981C117.767 71.836 117.863 72.2133 117.894 72.63ZM118.904 78.2585L119.701 70.2983L124.474 70.7758L124.388 71.6309L120.579 71.2498L120.31 73.9395L123.761 74.2848L123.676 75.1399L120.224 74.7946L119.868 78.3549L118.904 78.2585ZM132.443 75.593C132.359 76.4326 132.135 77.1429 131.77 77.7241C131.406 78.3053 130.943 78.7353 130.381 79.0141C129.819 79.2929 129.199 79.3984 128.52 79.3304C127.841 79.2625 127.254 79.0363 126.759 78.6517C126.263 78.2672 125.894 77.7539 125.652 77.1121C125.41 76.4702 125.331 75.7295 125.415 74.89C125.499 74.0504 125.724 73.34 126.088 72.7588C126.452 72.1776 126.915 71.7476 127.477 71.4688C128.039 71.19 128.659 71.0846 129.338 71.1525C130.017 71.2204 130.604 71.4467 131.1 71.8312C131.595 72.2158 131.964 72.729 132.206 73.3709C132.448 74.0127 132.527 74.7534 132.443 75.593ZM131.51 75.4997C131.579 74.8104 131.522 74.2171 131.339 73.7199C131.158 73.2229 130.884 72.833 130.517 72.5503C130.153 72.2678 129.73 72.1025 129.248 72.0543C128.766 72.006 128.317 72.0842 127.902 72.2886C127.489 72.4933 127.143 72.8212 126.865 73.2723C126.589 73.7237 126.417 74.294 126.348 74.9833C126.279 75.6725 126.335 76.2657 126.516 76.7627C126.699 77.26 126.973 77.6498 127.337 77.9323C127.704 78.215 128.128 78.3805 128.61 78.4287C129.092 78.4769 129.54 78.3987 129.953 78.194C130.369 77.9896 130.714 77.6616 130.99 77.2103C131.268 76.7591 131.441 76.1889 131.51 75.4997ZM138.234 75.5128L137.386 75.6636C137.348 75.521 137.285 75.38 137.197 75.2403C137.112 75.0983 136.988 74.976 136.825 74.8733C136.663 74.7707 136.448 74.7061 136.181 74.6794C135.816 74.6428 135.503 74.6966 135.243 74.8406C134.985 74.9824 134.843 75.1815 134.818 75.438C134.795 75.666 134.86 75.8544 135.012 76.0032C135.165 76.1519 135.413 76.288 135.757 76.4113L136.621 76.7177C137.142 76.9006 137.52 77.1386 137.755 77.4317C137.99 77.7222 138.087 78.076 138.045 78.4932C138.011 78.8353 137.882 79.1312 137.658 79.381C137.437 79.631 137.143 79.8163 136.778 79.9368C136.413 80.0572 135.998 80.0943 135.534 80.0479C134.925 79.9869 134.435 79.8044 134.062 79.5001C133.689 79.1959 133.475 78.7845 133.42 78.266L134.312 78.1355C134.363 78.4651 134.496 78.7218 134.71 78.9055C134.927 79.0895 135.224 79.2003 135.6 79.2378C136.027 79.2806 136.376 79.2239 136.645 79.0676C136.918 78.9091 137.067 78.7015 137.092 78.445C137.113 78.2377 137.058 78.0568 136.927 77.9024C136.796 77.7453 136.584 77.6168 136.29 77.5168L135.318 77.184C134.785 76.9998 134.403 76.7588 134.174 76.461C133.947 76.1609 133.855 75.8049 133.896 75.3929C133.93 75.056 134.054 74.7675 134.269 74.5273C134.487 74.2874 134.767 74.11 135.111 73.9952C135.458 73.8807 135.841 73.8444 136.261 73.8864C136.851 73.9455 137.302 74.1215 137.613 74.4143C137.927 74.7074 138.134 75.0736 138.234 75.5128ZM144.829 80.9777C144.253 80.9202 143.77 80.7436 143.378 80.4479C142.989 80.1499 142.705 79.7603 142.525 79.2791C142.349 78.7955 142.291 78.248 142.352 77.6365C142.413 77.0249 142.579 76.4971 142.848 76.053C143.121 75.6065 143.471 75.2725 143.898 75.051C144.329 74.8271 144.814 74.7421 145.353 74.7961C145.664 74.8272 145.966 74.9097 146.259 75.0437C146.551 75.1777 146.811 75.3737 147.036 75.6318C147.262 75.8873 147.429 76.2129 147.539 76.6086C147.648 77.0043 147.675 77.4807 147.62 78.0378L147.581 78.4265L142.979 77.9661L143.058 77.1732L146.727 77.5403C146.761 77.2034 146.724 76.8961 146.615 76.6183C146.51 76.3408 146.341 76.1132 146.11 75.9357C145.882 75.7585 145.602 75.6533 145.271 75.6201C144.905 75.5835 144.58 75.6426 144.295 75.7973C144.013 75.9496 143.786 76.1625 143.615 76.4359C143.443 76.7092 143.341 77.0105 143.308 77.3395L143.255 77.8682C143.21 78.319 143.25 78.709 143.374 79.0381C143.501 79.3649 143.696 79.6239 143.96 79.8151C144.223 80.0038 144.541 80.1166 144.911 80.1537C145.152 80.1778 145.373 80.1659 145.574 80.118C145.778 80.0677 145.958 79.981 146.115 79.858C146.271 79.7323 146.399 79.5697 146.497 79.3702L147.358 79.7076C147.235 79.9988 147.052 80.2475 146.809 80.4535C146.566 80.6569 146.276 80.8058 145.94 80.9004C145.603 80.9924 145.233 81.0182 144.829 80.9777ZM148.709 81.2402L149.306 75.27L150.192 75.3587L150.099 76.2916L150.176 76.2993C150.333 75.9931 150.558 75.7657 150.853 75.6172C151.148 75.4662 151.49 75.4101 151.879 75.449C152.273 75.4884 152.592 75.6106 152.836 75.8155C153.082 76.0182 153.263 76.2862 153.379 76.6197L153.441 76.626C153.625 76.3329 153.879 76.111 154.203 75.9602C154.527 75.8068 154.903 75.7515 155.33 75.7943C155.864 75.8477 156.284 76.0585 156.59 76.4267C156.896 76.7923 157.014 77.3263 156.944 78.0285L156.544 82.0242L155.627 81.9324L156.027 77.9367C156.071 77.4962 155.982 77.1693 155.76 76.9561C155.538 76.7428 155.264 76.6198 154.937 76.5872C154.517 76.5452 154.179 76.6396 153.923 76.8705C153.668 77.0987 153.52 77.4059 153.482 77.792L153.093 81.6789L152.16 81.5855L152.569 77.4966C152.603 77.1571 152.52 76.8727 152.321 76.6434C152.122 76.4115 151.848 76.2782 151.501 76.2434C151.263 76.2196 151.034 76.2608 150.814 76.367C150.596 76.4735 150.413 76.6331 150.263 76.8458C150.116 77.0562 150.028 77.3078 149.999 77.6006L149.626 81.332L148.709 81.2402ZM164.556 76.7957L164.478 77.5731L161.26 77.2511L161.338 76.4737L164.556 76.7957ZM161.704 82.5404L162.384 75.7462C162.418 75.4041 162.527 75.1271 162.711 74.9152C162.894 74.7032 163.12 74.5531 163.388 74.4647C163.656 74.3764 163.932 74.3464 164.217 74.375C164.443 74.3975 164.625 74.4341 164.764 74.4846C164.902 74.5351 165.005 74.5794 165.072 74.6175L164.729 75.384C164.683 75.3638 164.621 75.3379 164.54 75.3063C164.462 75.2749 164.357 75.2526 164.225 75.2394C163.922 75.2091 163.695 75.2636 163.545 75.403C163.398 75.5427 163.309 75.7602 163.28 76.0556L162.622 82.6321L161.704 82.5404ZM165.244 82.8945L165.841 76.9243L166.759 77.0161L166.162 82.9863L165.244 82.8945ZM166.407 75.976C166.229 75.9581 166.081 75.8818 165.963 75.747C165.848 75.6125 165.8 75.4598 165.817 75.2887C165.834 75.1177 165.912 74.9777 166.051 74.8686C166.193 74.7598 166.353 74.7143 166.532 74.7322C166.711 74.7501 166.857 74.8262 166.972 74.9607C167.09 75.0955 167.14 75.2484 167.123 75.4194C167.106 75.5904 167.026 75.7303 166.884 75.8392C166.745 75.9482 166.586 75.9938 166.407 75.976ZM169.118 79.6547L168.759 83.2462L167.842 83.1544L168.439 77.1842L169.325 77.2728L169.232 78.2057L169.309 78.2135C169.48 77.9243 169.717 77.702 170.02 77.5465C170.324 77.3885 170.701 77.332 171.152 77.3771C171.556 77.4175 171.902 77.5358 172.188 77.732C172.475 77.9256 172.686 78.1979 172.821 78.5491C172.956 78.8976 172.998 79.3258 172.948 79.8337L172.568 83.6272L171.651 83.5355L172.024 79.8041C172.071 79.3351 171.986 78.9575 171.768 78.6714C171.551 78.3828 171.23 78.2172 170.805 78.1747C170.512 78.1454 170.244 78.1827 170.001 78.2866C169.76 78.3907 169.562 78.558 169.405 78.7883C169.249 79.0187 169.153 79.3075 169.118 79.6547ZM177.438 78.0845L177.36 78.8618L174.266 78.5523L174.344 77.7749L177.438 78.0845ZM175.389 76.4348L176.306 76.5266L175.737 82.2169C175.711 82.476 175.729 82.6741 175.791 82.8112C175.856 82.946 175.946 83.0413 176.061 83.0973C176.179 83.151 176.305 83.1845 176.44 83.198C176.541 83.2081 176.624 83.2112 176.69 83.2073C176.756 83.2009 176.809 83.1957 176.848 83.1918L176.953 84.0345C176.888 84.0516 176.799 84.0662 176.685 84.0784C176.571 84.0931 176.429 84.092 176.258 84.0749C175.998 84.0489 175.75 83.9678 175.512 83.8315C175.277 83.6955 175.09 83.5053 174.949 83.2609C174.811 83.0168 174.76 82.7211 174.795 82.3739L175.389 76.4348ZM180.647 84.5611C180.072 84.5036 179.588 84.3269 179.196 84.0313C178.808 83.7333 178.523 83.3436 178.344 82.8624C178.167 82.3789 178.109 81.8314 178.17 81.2198C178.232 80.6083 178.397 80.0805 178.666 79.6364C178.939 79.1899 179.289 78.8559 179.717 78.6344C180.147 78.4105 180.632 78.3255 181.171 78.3795C181.482 78.4106 181.784 78.4931 182.077 78.6271C182.37 78.7611 182.629 78.9571 182.854 79.2152C183.08 79.4707 183.248 79.7963 183.357 80.192C183.467 80.5877 183.494 81.0641 183.438 81.6212L183.399 82.0099L178.797 81.5495L178.876 80.7566L182.545 81.1236C182.579 80.7868 182.542 80.4795 182.434 80.2017C182.328 79.9241 182.16 79.6966 181.929 79.5191C181.7 79.3419 181.42 79.2367 181.089 79.2035C180.723 79.1669 180.398 79.226 180.113 79.3807C179.831 79.533 179.604 79.7459 179.433 80.0193C179.262 80.2926 179.16 80.5938 179.127 80.9229L179.074 81.4515C179.029 81.9024 179.068 82.2924 179.192 82.6215C179.319 82.9483 179.514 83.2073 179.778 83.3985C180.042 83.5872 180.359 83.7 180.729 83.7371C180.97 83.7612 181.191 83.7493 181.393 83.7014C181.596 83.6511 181.777 83.5644 181.933 83.4414C182.089 83.3157 182.217 83.1531 182.315 82.9536L183.177 83.291C183.053 83.5822 182.87 83.8309 182.627 84.0369C182.384 84.2403 182.094 84.3892 181.758 84.4838C181.422 84.5758 181.051 84.6015 180.647 84.5611ZM186.94 85.1907C186.38 85.1347 185.911 84.9543 185.534 84.6495C185.156 84.3448 184.881 83.9496 184.71 83.464C184.539 82.9784 184.483 82.4376 184.543 81.8416C184.603 81.2353 184.768 80.7113 185.037 80.2698C185.31 79.8259 185.659 79.4932 186.087 79.2717C186.518 79.0478 187.003 78.9629 187.542 79.0168C187.962 79.0588 188.332 79.1744 188.653 79.3635C188.975 79.5527 189.229 79.798 189.416 80.0994C189.603 80.4007 189.704 80.7406 189.718 81.1189L188.801 81.0271C188.758 80.7481 188.627 80.4915 188.407 80.2575C188.19 80.0212 187.879 79.8828 187.475 79.8424C187.117 79.8066 186.794 79.8685 186.506 80.0281C186.221 80.1854 185.986 80.4249 185.802 80.7468C185.621 81.0662 185.508 81.4514 185.463 81.9023C185.417 82.3635 185.449 82.7724 185.56 83.129C185.674 83.4858 185.854 83.7722 186.102 83.988C186.353 84.2041 186.659 84.3304 187.022 84.3666C187.261 84.3905 187.481 84.3707 187.684 84.3072C187.886 84.2437 188.063 84.141 188.213 83.999C188.363 83.857 188.478 83.68 188.557 83.4681L189.474 83.5598C189.387 83.9071 189.227 84.2117 188.994 84.4736C188.764 84.7333 188.473 84.9293 188.123 85.0617C187.775 85.1917 187.38 85.2347 186.94 85.1907ZM191.917 81.9356L191.558 85.5271L190.641 85.4353L191.437 77.475L192.355 77.5668L192.062 80.4897L192.14 80.4975C192.311 80.2031 192.545 79.9793 192.843 79.8259C193.144 79.6702 193.529 79.6158 193.998 79.6627C194.405 79.7034 194.753 79.8206 195.042 80.0145C195.332 80.2057 195.544 80.4769 195.679 80.828C195.817 81.1768 195.86 81.6077 195.809 82.1208L195.429 85.9144L194.512 85.8226L194.885 82.0912C194.933 81.617 194.847 81.2381 194.626 80.9543C194.409 80.6682 194.084 80.5035 193.651 80.4602C193.35 80.4302 193.075 80.4667 192.824 80.5698C192.575 80.6732 192.37 80.8398 192.208 81.0696C192.049 81.2997 191.952 81.5884 191.917 81.9356ZM201.8 81.8722L200.953 82.023C200.915 81.8805 200.852 81.7394 200.763 81.5997C200.678 81.4577 200.554 81.3354 200.392 81.2328C200.229 81.1301 200.015 81.0655 199.748 81.0388C199.382 81.0022 199.07 81.056 198.809 81.2C198.552 81.3418 198.41 81.5409 198.384 81.7974C198.361 82.0255 198.426 82.2138 198.579 82.3626C198.732 82.5113 198.98 82.6474 199.323 82.7707L200.188 83.0771C200.709 83.26 201.086 83.4981 201.321 83.7911C201.557 84.0816 201.654 84.4355 201.612 84.8526C201.578 85.1947 201.448 85.4906 201.225 85.7404C201.003 85.9904 200.71 86.1757 200.345 86.2962C199.979 86.4167 199.565 86.4537 199.101 86.4073C198.492 86.3464 198.001 86.1638 197.628 85.8596C197.256 85.5553 197.042 85.144 196.986 84.6255L197.879 84.4949C197.93 84.8245 198.062 85.0812 198.277 85.2649C198.494 85.4489 198.79 85.5597 199.166 85.5973C199.594 85.64 199.942 85.5833 200.212 85.4271C200.484 85.2685 200.633 85.0609 200.659 84.8044C200.679 84.5971 200.624 84.4162 200.493 84.2618C200.362 84.1048 200.15 83.9762 199.857 83.8762L198.885 83.5434C198.351 83.3592 197.969 83.1182 197.74 82.8204C197.514 82.5204 197.421 82.1643 197.462 81.7523C197.496 81.4154 197.62 81.1269 197.835 80.8867C198.053 80.6468 198.334 80.4694 198.678 80.3546C199.024 80.2401 199.407 80.2039 199.827 80.2459C200.418 80.305 200.869 80.4809 201.18 80.7738C201.493 81.0668 201.7 81.433 201.8 81.8722ZM208.146 87.3122C207.649 87.2625 207.222 87.0929 206.867 86.8034C206.511 86.5114 206.249 86.1239 206.08 85.6412C205.911 85.1558 205.859 84.597 205.922 83.9648C205.984 83.3377 206.146 82.8043 206.408 82.3646C206.669 81.9249 207.004 81.5985 207.412 81.3855C207.821 81.1725 208.277 81.0912 208.779 81.1415C209.168 81.1804 209.469 81.2759 209.681 81.428C209.897 81.5778 210.056 81.7402 210.159 81.9154C210.264 82.0883 210.346 82.2299 210.403 82.3403L210.48 82.348L210.774 79.4096L211.692 79.5014L210.895 87.4616L210.009 87.373L210.101 86.4557L209.992 86.4448C209.914 86.5469 209.804 86.6746 209.663 86.828C209.522 86.9788 209.33 87.1075 209.087 87.2139C208.843 87.3178 208.53 87.3506 208.146 87.3122ZM208.353 86.5007C208.721 86.5375 209.042 86.4727 209.315 86.3064C209.588 86.1374 209.808 85.8886 209.975 85.5597C210.141 85.2283 210.247 84.8372 210.292 84.3863C210.337 83.9406 210.311 83.5442 210.215 83.1969C210.119 82.8471 209.953 82.5662 209.718 82.3542C209.483 82.1397 209.179 82.0137 208.806 81.9764C208.417 81.9375 208.083 82.0049 207.804 82.1785C207.528 82.3497 207.308 82.5986 207.145 82.9251C206.984 83.2493 206.883 83.6212 206.841 84.041C206.798 84.466 206.824 84.8585 206.919 85.2187C207.017 85.5766 207.184 85.8707 207.42 86.1011C207.659 86.3291 207.97 86.4623 208.353 86.5007ZM215.193 88.0172C214.618 87.9597 214.135 87.7831 213.743 87.4874C213.354 87.1894 213.07 86.7998 212.89 86.3186C212.713 85.835 212.656 85.2875 212.717 84.676C212.778 84.0645 212.943 83.5366 213.213 83.0925C213.485 82.646 213.835 82.312 214.263 82.0905C214.694 81.8666 215.179 81.7817 215.718 81.8356C216.028 81.8667 216.33 81.9492 216.623 82.0832C216.916 82.2172 217.175 82.4132 217.4 82.6713C217.626 82.9268 217.794 83.2524 217.903 83.6481C218.013 84.0438 218.04 84.5202 217.984 85.0773L217.945 85.466L213.343 85.0056L213.423 84.2127L217.092 84.5798C217.125 84.2429 217.088 83.9356 216.98 83.6578C216.874 83.3803 216.706 83.1528 216.475 82.9753C216.247 82.798 215.967 82.6928 215.635 82.6596C215.27 82.6231 214.945 82.6821 214.659 82.8368C214.377 82.9892 214.151 83.202 213.979 83.4754C213.808 83.7488 213.706 84.05 213.673 84.3791L213.62 84.9077C213.575 85.3586 213.614 85.7485 213.739 86.0776C213.865 86.4044 214.061 86.6634 214.324 86.8546C214.588 87.0433 214.905 87.1562 215.276 87.1932C215.517 87.2173 215.738 87.2054 215.939 87.1575C216.143 87.1072 216.323 87.0206 216.479 86.8975C216.636 86.7718 216.763 86.6092 216.862 86.4097L217.723 86.7471C217.6 87.0384 217.416 87.287 217.173 87.493C216.93 87.6964 216.641 87.8454 216.304 87.9399C215.968 88.0319 215.598 88.0577 215.193 88.0172ZM223.894 88.9034C223.516 88.8656 223.18 88.76 222.886 88.5866C222.592 88.4106 222.368 88.1776 222.214 87.8873C222.06 87.5945 222.002 87.2538 222.041 86.8651C222.075 86.523 222.171 86.2525 222.327 86.0535C222.483 85.8519 222.68 85.7015 222.917 85.6023C223.155 85.503 223.413 85.4372 223.691 85.4049C223.972 85.3701 224.253 85.3485 224.534 85.34C224.901 85.3296 225.199 85.3241 225.426 85.3233C225.657 85.3202 225.827 85.294 225.937 85.2448C226.049 85.1958 226.112 85.0975 226.127 84.9498L226.13 84.9187C226.169 84.5352 226.094 84.2267 225.905 83.9932C225.719 83.76 225.415 83.6223 224.992 83.58C224.554 83.5362 224.201 83.5977 223.933 83.7646C223.666 83.9315 223.47 84.1187 223.347 84.3262L222.508 83.9282C222.7 83.581 222.935 83.3193 223.214 83.1431C223.497 82.9645 223.796 82.8505 224.112 82.8011C224.432 82.7493 224.741 82.7384 225.042 82.7685C225.234 82.7876 225.452 82.833 225.696 82.9045C225.943 82.9737 226.176 83.0899 226.395 83.2532C226.617 83.4167 226.791 83.6475 226.919 83.9455C227.046 84.2435 227.086 84.6296 227.038 85.1038L226.645 89.0373L225.727 88.9455L225.808 88.137L225.762 88.1324C225.687 88.2557 225.569 88.384 225.409 88.5171C225.249 88.6503 225.044 88.7567 224.792 88.8362C224.541 88.9158 224.242 88.9382 223.894 88.9034ZM224.117 88.0934C224.48 88.1297 224.792 88.089 225.055 87.9714C225.321 87.854 225.529 87.689 225.678 87.4763C225.83 87.2638 225.919 87.0332 225.944 86.7844L226.028 85.9448C225.984 85.9876 225.894 86.0218 225.758 86.0474C225.625 86.0708 225.472 86.0881 225.298 86.0995C225.127 86.1086 224.96 86.1154 224.797 86.1201C224.637 86.1224 224.507 86.1251 224.408 86.1282C224.166 86.1355 223.938 86.1637 223.724 86.2129C223.512 86.2598 223.336 86.3456 223.196 86.4702C223.058 86.5925 222.977 86.7703 222.954 87.0035C222.922 87.3222 223.016 87.575 223.235 87.7618C223.458 87.9463 223.751 88.0569 224.117 88.0934ZM230.033 81.3363L229.236 89.2965L228.319 89.2048L229.115 81.2445L230.033 81.3363ZM234.11 83.7542L234.032 84.5315L230.938 84.222L231.016 83.4446L234.11 83.7542ZM232.061 82.1045L232.978 82.1963L232.409 87.8866C232.383 88.1457 232.401 88.3438 232.463 88.4809C232.528 88.6157 232.618 88.711 232.733 88.767C232.851 88.8206 232.977 88.8542 233.112 88.8677C233.213 88.8778 233.296 88.8809 233.362 88.877C233.428 88.8705 233.481 88.8654 233.521 88.8615L233.625 89.7042C233.56 89.7213 233.471 89.7359 233.357 89.7481C233.243 89.7628 233.101 89.7617 232.93 89.7445C232.671 89.7186 232.422 89.6375 232.185 89.5012C231.95 89.3651 231.762 89.1749 231.621 88.9306C231.484 88.6865 231.432 88.3908 231.467 88.0436L232.061 82.1045ZM237.241 90.223C236.702 90.1691 236.242 89.9935 235.861 89.6963C235.483 89.3993 235.202 89.0088 235.021 88.5247C234.841 88.041 234.782 87.4907 234.844 86.874C234.906 86.2521 235.073 85.7205 235.345 85.2792C235.62 84.8382 235.972 84.5097 236.402 84.2936C236.834 84.0777 237.32 83.9968 237.859 84.0507C238.398 84.1046 238.857 84.2801 239.235 84.577C239.616 84.8743 239.897 85.2661 240.076 85.7525C240.257 86.2391 240.317 86.7934 240.255 87.4153C240.193 88.032 240.025 88.5596 239.751 88.998C239.479 89.4367 239.127 89.7639 238.695 89.9798C238.265 90.1958 237.78 90.2769 237.241 90.223ZM237.324 89.399C237.733 89.44 238.081 89.3687 238.366 89.1853C238.651 89.0018 238.875 88.7454 239.036 88.4161C239.197 88.0867 239.297 87.7226 239.337 87.3235C239.377 86.9245 239.351 86.5463 239.259 86.1889C239.166 85.8316 238.998 85.5335 238.755 85.2945C238.512 85.0556 238.186 84.9157 237.777 84.8747C237.367 84.8338 237.02 84.9063 236.734 85.0923C236.448 85.2784 236.225 85.5374 236.064 85.8693C235.902 86.2012 235.801 86.5667 235.761 86.9658C235.722 87.3648 235.748 87.7417 235.841 88.0964C235.933 88.4512 236.101 88.7467 236.345 88.9831C236.588 89.2194 236.914 89.358 237.324 89.399ZM58.0792 90.3888C57.5195 90.3328 57.0507 90.1525 56.6729 89.8477C56.2951 89.543 56.0206 89.1478 55.8493 88.6622C55.6781 88.1766 55.6223 87.6358 55.6819 87.0398C55.7425 86.4335 55.9075 85.9095 56.1768 85.468C56.4489 85.0241 56.7988 84.6914 57.2266 84.4699C57.6573 84.246 58.1421 84.161 58.6811 84.215C59.1009 84.257 59.4714 84.3725 59.7927 84.5617C60.114 84.7509 60.3682 84.9962 60.5553 85.2975C60.7424 85.5989 60.8432 85.9388 60.8577 86.3171L59.9404 86.2253C59.8976 85.9462 59.7663 85.6897 59.5463 85.4557C59.3291 85.2194 59.0185 85.081 58.6142 85.0405C58.2566 85.0048 57.9338 85.0667 57.6456 85.2263C57.3603 85.3836 57.1257 85.6231 56.9417 85.9449C56.7605 86.2644 56.6474 86.6496 56.6023 87.1005C56.5561 87.5617 56.5885 87.9706 56.6994 88.3272C56.8129 88.684 56.9936 88.9703 57.2416 89.1862C57.4922 89.4023 57.7988 89.5285 58.1616 89.5648C58.4 89.5887 58.6205 89.5689 58.8231 89.5054C59.0258 89.4419 59.2023 89.3392 59.3525 89.1972C59.5028 89.0552 59.6174 88.8782 59.6962 88.6662L60.6135 88.758C60.5264 89.1052 60.3664 89.4098 60.1334 89.6718C59.9033 89.9314 59.6128 90.1274 59.2619 90.2598C58.9139 90.3899 58.5197 90.4329 58.0792 90.3888ZM61.7802 90.6335L62.3775 84.6633L63.2637 84.7519L63.1735 85.6537L63.2357 85.6599C63.3741 85.3754 63.595 85.1554 63.8984 84.9999C64.2019 84.8445 64.5324 84.7846 64.89 84.8204C64.9573 84.8272 65.0414 84.8369 65.1422 84.8496C65.243 84.8623 65.3191 84.8738 65.3704 84.8842L65.2771 85.817C65.2467 85.8061 65.1766 85.7874 65.0668 85.7607C64.9598 85.7316 64.8454 85.711 64.7236 85.6988C64.4334 85.6698 64.1681 85.7048 63.9279 85.8038C63.6906 85.9004 63.4952 86.0483 63.3418 86.2476C63.1912 86.4445 63.1024 86.6777 63.0755 86.9472L62.6975 90.7252L61.7802 90.6335ZM68.1616 91.3975C67.5864 91.34 67.1029 91.1634 66.7111 90.8677C66.3222 90.5697 66.0379 90.1801 65.8584 89.6989C65.6817 89.2153 65.6239 88.6678 65.6851 88.0563C65.7463 87.4447 65.9116 86.9169 66.1811 86.4728C66.4535 86.0263 66.8036 85.6923 67.2314 85.4708C67.6621 85.2469 68.1469 85.162 68.6859 85.2159C68.9968 85.247 69.2987 85.3295 69.5915 85.4635C69.8843 85.5975 70.1434 85.7935 70.3688 86.0516C70.5945 86.3071 70.7622 86.6327 70.8718 87.0284C70.9813 87.4241 71.0083 87.9005 70.9525 88.4576L70.9137 88.8463L66.3116 88.3859L66.391 87.593L70.0601 87.9601C70.0938 87.6232 70.0565 87.3159 69.9482 87.0381C69.8425 86.7606 69.6742 86.533 69.4434 86.3555C69.2151 86.1783 68.9351 86.0731 68.6034 86.0399C68.2381 86.0033 67.9129 86.0624 67.6278 86.2171C67.3456 86.3694 67.1189 86.5823 66.9476 86.8557C66.7763 87.129 66.6742 87.4303 66.6413 87.7594L66.5884 88.288C66.5433 88.7388 66.5828 89.1288 66.7069 89.4579C66.8338 89.7847 67.0291 90.0437 67.2926 90.2349C67.5564 90.4236 67.8735 90.5364 68.2441 90.5735C68.4851 90.5976 68.7061 90.5857 68.9072 90.5378C69.1111 90.4875 69.2912 90.4008 69.4475 90.2778C69.604 90.1521 69.7315 89.9895 69.83 89.79L70.6913 90.1274C70.5679 90.4187 70.3847 90.6673 70.1416 90.8733C69.8988 91.0767 69.6091 91.2257 69.2725 91.3202C68.9362 91.4122 68.5659 91.438 68.1616 91.3975ZM76.7339 87.45L75.8866 87.6008C75.8485 87.4583 75.7854 87.3172 75.6973 87.1775C75.612 87.0355 75.4882 86.9132 75.3257 86.8106C75.1633 86.7079 74.9486 86.6433 74.6817 86.6166C74.3163 86.58 74.0034 86.6338 73.743 86.7778C73.4854 86.9196 73.3438 87.1187 73.3181 87.3752C73.2953 87.6033 73.3602 87.7916 73.5128 87.9404C73.6655 88.0891 73.9136 88.2252 74.2572 88.3485L75.1216 88.6549C75.6424 88.8378 76.0203 89.0758 76.2553 89.3689C76.4906 89.6594 76.5874 90.0133 76.5456 90.4304C76.5114 90.7725 76.3824 91.0684 76.1585 91.3182C75.9372 91.5682 75.6438 91.7535 75.2785 91.874C74.9131 91.9944 74.4985 92.0315 74.0347 91.9851C73.4257 91.9242 72.935 91.7416 72.5623 91.4374C72.1897 91.1331 71.9757 90.7218 71.9203 90.2032L72.8127 90.0727C72.8635 90.4023 72.9962 90.659 73.2107 90.8427C73.4278 91.0267 73.7243 91.1375 74.1 91.1751C74.5276 91.2178 74.8761 91.1611 75.1456 91.0049C75.4179 90.8463 75.5669 90.6387 75.5926 90.3822C75.6133 90.1749 75.5581 89.994 75.427 89.8396C75.2962 89.6826 75.084 89.554 74.7904 89.454L73.8187 89.1212C73.2849 88.937 72.9033 88.696 72.674 88.3982C72.4476 88.0981 72.3549 87.7421 72.3962 87.3301C72.4299 86.9932 72.5543 86.7047 72.7693 86.4645C72.987 86.2246 73.2678 86.0472 73.6117 85.9324C73.9581 85.8179 74.3412 85.7817 74.761 85.8237C75.3518 85.8828 75.8027 86.0587 76.1136 86.3515C76.4271 86.6446 76.6339 87.0108 76.7339 87.45ZM80.173 92.5992C79.6133 92.5432 79.1445 92.3628 78.7667 92.0581C78.3889 91.7533 78.1144 91.3581 77.9432 90.8725C77.7719 90.3869 77.7161 89.8461 77.7757 89.2502C77.8364 88.6438 78.0013 88.1199 78.2706 87.6783C78.5427 87.2345 78.8926 86.9018 79.3204 86.6802C79.7511 86.4564 80.2359 86.3714 80.7749 86.4253C81.1947 86.4673 81.5652 86.5829 81.8866 86.7721C82.2079 86.9612 82.462 87.2065 82.6491 87.5079C82.8362 87.8093 82.937 88.1491 82.9515 88.5274L82.0342 88.4356C81.9914 88.1566 81.8601 87.9 81.6401 87.666C81.423 87.4297 81.1123 87.2913 80.708 87.2509C80.3504 87.2151 80.0276 87.277 79.7394 87.4366C79.4541 87.5939 79.2195 87.8335 79.0355 88.1553C78.8543 88.4748 78.7412 88.86 78.6961 89.3108C78.65 89.7721 78.6823 90.181 78.7932 90.5375C78.9067 90.8943 79.0874 91.1807 79.3354 91.3965C79.586 91.6127 79.8926 91.7389 80.2554 91.7752C80.4938 91.799 80.7143 91.7792 80.917 91.7157C81.1196 91.6522 81.2961 91.5495 81.4464 91.4075C81.5967 91.2655 81.7112 91.0885 81.79 90.8766L82.7073 90.9684C82.6202 91.3156 82.4602 91.6202 82.2272 91.8821C81.9971 92.1418 81.7066 92.3378 81.3558 92.4702C81.0077 92.6002 80.6135 92.6432 80.173 92.5992ZM83.874 92.8438L84.4713 86.8736L85.3886 86.9654L84.7913 92.9356L83.874 92.8438ZM85.0373 85.9253C84.8585 85.9074 84.7104 85.831 84.593 85.6963C84.4782 85.5618 84.4294 85.4091 84.4465 85.238C84.4636 85.067 84.5417 84.927 84.6809 84.8179C84.8226 84.709 84.9829 84.6636 85.1617 84.6815C85.3405 84.6993 85.4873 84.7755 85.6021 84.91C85.7195 85.0448 85.7696 85.1977 85.7525 85.3687C85.7354 85.5397 85.656 85.6796 85.5142 85.7885C85.3751 85.8975 85.2161 85.9431 85.0373 85.9253ZM86.4714 93.1037L87.0687 87.1335L87.9549 87.2221L87.8616 88.155L87.9393 88.1628C88.0956 87.8565 88.3212 87.6291 88.616 87.4806C88.9112 87.3296 89.2531 87.2735 89.6418 87.3124C90.0357 87.3518 90.3545 87.474 90.5983 87.679C90.845 87.8816 91.0263 88.1497 91.1421 88.4832L91.2043 88.4894C91.388 88.1963 91.6418 87.9744 91.9657 87.8236C92.2899 87.6702 92.6658 87.6149 93.0933 87.6577C93.6271 87.7111 94.047 87.9219 94.353 88.2901C94.6593 88.6558 94.7773 89.1897 94.707 89.8919L94.3073 93.8876L93.39 93.7958L93.7897 89.8002C93.8338 89.3596 93.7448 89.0328 93.5228 88.8195C93.3007 88.6062 93.0264 88.4833 92.6999 88.4506C92.2802 88.4086 91.9422 88.503 91.6862 88.7339C91.4305 88.9622 91.2833 89.2694 91.2446 89.6555L90.8558 93.5423L89.9229 93.449L90.332 89.36C90.366 89.0206 90.2832 88.7362 90.0837 88.5068C89.8844 88.2749 89.6112 88.1416 89.264 88.1068C89.0256 88.083 88.7964 88.1242 88.5764 88.2304C88.359 88.3369 88.1755 88.4965 88.026 88.7093C87.8793 88.9197 87.7913 89.1713 87.762 89.4641L87.3887 93.1954L86.4714 93.1037ZM98.4752 94.4302C97.8999 94.3726 97.4164 94.196 97.0246 93.9004C96.6357 93.6023 96.3514 93.2127 96.1719 92.7315C95.9952 92.248 95.9374 91.7005 95.9986 91.0889C96.0598 90.4774 96.2251 89.9496 96.4946 89.5055C96.767 89.059 97.1171 88.725 97.5449 88.5035C97.9756 88.2796 98.4604 88.1946 98.9994 88.2485C99.3103 88.2797 99.6122 88.3622 99.905 88.4962C100.198 88.6302 100.457 88.8262 100.682 89.0843C100.908 89.3398 101.076 89.6654 101.185 90.0611C101.295 90.4568 101.322 90.9332 101.266 91.4903L101.227 91.879L96.6251 91.4186L96.7045 90.6257L100.374 90.9927C100.407 90.6559 100.37 90.3485 100.262 90.0708C100.156 89.7932 99.9878 89.5657 99.7569 89.3882C99.5286 89.211 99.2486 89.1057 98.9169 89.0726C98.5516 89.036 98.2264 89.0951 97.9413 89.2498C97.6591 89.4021 97.4324 89.615 97.2611 89.8883C97.0898 90.1617 96.9877 90.4629 96.9548 90.792L96.9019 91.3206C96.8568 91.7715 96.8963 92.1615 97.0204 92.4906C97.1474 92.8173 97.3426 93.0764 97.6061 93.2676C97.8699 93.4562 98.1871 93.5691 98.5576 93.6062C98.7986 93.6303 99.0196 93.6184 99.2207 93.5705C99.4246 93.5202 99.6047 93.4335 99.761 93.3104C99.9175 93.1848 100.045 93.0222 100.143 92.8227L101.005 93.1601C100.881 93.4513 100.698 93.6999 100.455 93.9059C100.212 94.1093 99.9226 94.2583 99.586 94.3529C99.2497 94.4449 98.8794 94.4706 98.4752 94.4302ZM103.632 91.193L103.272 94.7845L102.355 94.6927L102.952 88.7225L103.839 88.8112L103.745 89.744L103.823 89.7518C103.993 89.4626 104.23 89.2403 104.533 89.0849C104.837 88.9268 105.214 88.8703 105.665 88.9154C106.07 88.9559 106.415 89.0742 106.702 89.2703C106.988 89.4639 107.199 89.7363 107.334 90.0874C107.47 90.4359 107.512 90.8641 107.461 91.372L107.081 95.1656L106.164 95.0738L106.537 91.3424C106.584 90.8734 106.499 90.4959 106.282 90.2098C106.065 89.9211 105.744 89.7555 105.319 89.713C105.026 89.6837 104.758 89.721 104.514 89.8249C104.274 89.9291 104.075 90.0963 103.919 90.3267C103.762 90.557 103.666 90.8458 103.632 91.193ZM111.951 89.6228L111.874 90.4002L108.78 90.0907L108.857 89.3133L111.951 89.6228ZM109.902 87.9731L110.82 88.0649L110.25 93.7553C110.224 94.0144 110.242 94.2125 110.305 94.3496C110.37 94.4843 110.46 94.5797 110.574 94.6357C110.692 94.6893 110.818 94.7229 110.953 94.7363C111.054 94.7464 111.137 94.7496 111.203 94.7457C111.269 94.7392 111.322 94.734 111.362 94.7301L111.466 95.5728C111.401 95.5899 111.312 95.6045 111.199 95.6167C111.085 95.6315 110.942 95.6303 110.771 95.6132C110.512 95.5873 110.264 95.5062 110.026 95.3699C109.791 95.2338 109.603 95.0436 109.463 94.7992C109.325 94.5551 109.273 94.2595 109.308 93.9123L109.902 87.9731ZM115.083 96.0917C114.544 96.0377 114.084 95.8622 113.702 95.5649C113.324 95.268 113.044 94.8775 112.862 94.3934C112.683 93.9096 112.624 93.3594 112.685 92.7426C112.748 92.1207 112.915 91.5892 113.187 91.1479C113.461 90.7069 113.813 90.3783 114.243 90.1622C114.675 89.9464 115.161 89.8654 115.7 89.9194C116.239 89.9733 116.698 90.1487 117.077 90.4457C117.458 90.7429 117.738 91.1347 117.917 91.6211C118.098 92.1078 118.158 92.662 118.096 93.2839C118.034 93.9006 117.866 94.4282 117.592 94.8666C117.321 95.3053 116.968 95.6326 116.536 95.8484C116.106 96.0645 115.622 96.1456 115.083 96.0917ZM115.165 95.2677C115.575 95.3086 115.922 95.2374 116.207 95.0539C116.493 94.8705 116.716 94.6141 116.877 94.2847C117.038 93.9554 117.139 93.5912 117.179 93.1922C117.219 92.7931 117.192 92.4149 117.1 92.0576C117.007 91.7002 116.839 91.4021 116.596 91.1632C116.353 90.9243 116.027 90.7843 115.618 90.7434C115.208 90.7024 114.861 90.7749 114.575 90.961C114.29 91.147 114.066 91.406 113.905 91.7379C113.743 92.0699 113.643 92.4354 113.603 92.8344C113.563 93.2335 113.589 93.6104 113.682 93.9651C113.775 94.3199 113.943 94.6154 114.186 94.8517C114.429 95.0881 114.756 95.2267 115.165 95.2677Z" fill="#334155"/>
</g>
<path d="M24.5582 22.6726V31.3999H22.9645L19.1676 25.907H19.1037V31.3999H17.2585V22.6726H18.8778L22.6449 28.1613H22.7216V22.6726H24.5582ZM29.0316 31.5277C28.3583 31.5277 27.7788 31.3914 27.293 31.1187C26.81 30.8431 26.4379 30.4539 26.1765 29.951C25.9151 29.4454 25.7844 28.8473 25.7844 28.157C25.7844 27.4837 25.9151 26.8928 26.1765 26.3843C26.4379 25.8758 26.8058 25.4794 27.2802 25.1954C27.7575 24.9113 28.3171 24.7692 28.9592 24.7692C29.391 24.7692 29.793 24.8388 30.1651 24.978C30.5401 25.1144 30.8668 25.3204 31.1452 25.5959C31.4265 25.8715 31.6452 26.2181 31.8015 26.6357C31.9577 27.0505 32.0359 27.5363 32.0359 28.0931V28.5917H26.5089V27.4667H30.3271C30.3271 27.2053 30.2702 26.9738 30.1566 26.7721C30.043 26.5704 29.8853 26.4127 29.6836 26.299C29.4847 26.1826 29.2532 26.1243 28.989 26.1243C28.7134 26.1243 28.4691 26.1883 28.256 26.3161C28.0458 26.4411 27.881 26.6101 27.7617 26.8232C27.6424 27.0334 27.5813 27.2678 27.5785 27.5263V28.5959C27.5785 28.9198 27.6381 29.1996 27.7575 29.4354C27.8796 29.6712 28.0515 29.853 28.2731 29.9809C28.4947 30.1087 28.7575 30.1726 29.0614 30.1726C29.2631 30.1726 29.4478 30.1442 29.6154 30.0874C29.783 30.0306 29.9265 29.9454 30.0458 29.8317C30.1651 29.7181 30.256 29.5789 30.3185 29.4141L31.9975 29.5249C31.9123 29.9283 31.7376 30.2806 31.4734 30.5817C31.212 30.88 30.8739 31.113 30.4592 31.2806C30.0472 31.4454 29.5714 31.5277 29.0316 31.5277ZM34.4648 31.3999L32.6836 24.8544H34.5202L35.5344 29.2522H35.5941L36.6509 24.8544H38.4535L39.5273 29.2266H39.5827L40.5799 24.8544H42.4123L40.6353 31.3999H38.7134L37.5884 27.2834H37.5075L36.3825 31.3999H34.4648ZM53.8924 25.728H52.0259C51.9918 25.4865 51.9222 25.2721 51.8171 25.0846C51.712 24.8942 51.5771 24.7323 51.4123 24.5988C51.2475 24.4652 51.0572 24.363 50.8413 24.2919C50.6282 24.2209 50.3967 24.1854 50.1467 24.1854C49.695 24.1854 49.3015 24.2976 48.9663 24.5221C48.631 24.7437 48.3711 25.0675 48.1864 25.4937C48.0018 25.9169 47.9094 26.4312 47.9094 27.0363C47.9094 27.6584 48.0018 28.1812 48.1864 28.6044C48.3739 29.0277 48.6353 29.3473 48.9705 29.5633C49.3058 29.7792 49.6935 29.8871 50.1339 29.8871C50.381 29.8871 50.6097 29.8544 50.82 29.7891C51.033 29.7238 51.2219 29.6286 51.3867 29.5036C51.5515 29.3758 51.6879 29.2209 51.7958 29.0391C51.9066 28.8573 51.9833 28.6499 52.0259 28.4169L53.8924 28.4255C53.8441 28.826 53.7234 29.2124 53.5302 29.5846C53.3398 29.9539 53.0827 30.2848 52.7589 30.5775C52.4379 30.8672 52.0543 31.0973 51.6083 31.2678C51.1651 31.4354 50.6637 31.5192 50.104 31.5192C49.3256 31.5192 48.6296 31.3431 48.016 30.9908C47.4052 30.6385 46.9222 30.1286 46.5671 29.461C46.2148 28.7934 46.0387 27.9851 46.0387 27.0363C46.0387 26.0846 46.2177 25.2749 46.5756 24.6073C46.9336 23.9397 47.4194 23.4312 48.033 23.0817C48.6467 22.7294 49.337 22.5533 50.104 22.5533C50.6097 22.5533 51.0785 22.6243 51.5103 22.7664C51.945 22.9084 52.3299 23.1158 52.6651 23.3885C53.0004 23.6584 53.2731 23.9894 53.4833 24.3814C53.6964 24.7735 53.8327 25.2223 53.8924 25.728ZM56.9968 27.6158V31.3999H55.1815V22.6726H56.9457V26.0093H57.0224C57.1701 25.6229 57.4087 25.3204 57.7383 25.1016C58.0678 24.88 58.4812 24.7692 58.9783 24.7692C59.4329 24.7692 59.8292 24.8687 60.1673 25.0675C60.5082 25.2635 60.7724 25.5462 60.9599 25.9155C61.1502 26.282 61.244 26.7209 61.2411 27.2323V31.3999H59.4258V27.5562C59.4286 27.1527 59.3263 26.8388 59.119 26.6144C58.9144 26.39 58.6275 26.2777 58.2582 26.2777C58.011 26.2777 57.7923 26.3303 57.6019 26.4354C57.4144 26.5405 57.2667 26.6939 57.1587 26.8956C57.0536 27.0945 56.9996 27.3346 56.9968 27.6158ZM64.5362 31.5235C64.1186 31.5235 63.7464 31.451 63.4197 31.3062C63.093 31.1584 62.8345 30.9411 62.6442 30.6542C62.4567 30.3644 62.3629 30.0036 62.3629 29.5718C62.3629 29.2081 62.4297 28.9027 62.5632 28.6556C62.6967 28.4084 62.8786 28.2096 63.1087 28.059C63.3388 27.9084 63.6001 27.7948 63.8928 27.7181C64.1882 27.6414 64.4979 27.5874 64.8217 27.5562C65.2024 27.5164 65.5092 27.4794 65.7422 27.4454C65.9751 27.4084 66.1442 27.3544 66.2493 27.2834C66.3544 27.2124 66.407 27.1073 66.407 26.9681V26.9425C66.407 26.6726 66.3217 26.4638 66.1513 26.3161C65.9837 26.1684 65.745 26.0945 65.4354 26.0945C65.1087 26.0945 64.8487 26.1669 64.6555 26.3118C64.4624 26.4539 64.3345 26.6329 64.272 26.8488L62.593 26.7124C62.6783 26.3147 62.8459 25.9709 63.0959 25.6812C63.3459 25.3885 63.6683 25.1641 64.0632 25.0079C64.4609 24.8488 64.9212 24.7692 65.4439 24.7692C65.8075 24.7692 66.1555 24.8118 66.4879 24.8971C66.8232 24.9823 67.12 25.1144 67.3786 25.2934C67.6399 25.4723 67.8459 25.7025 67.9964 25.9837C68.147 26.2621 68.2223 26.5959 68.2223 26.9851V31.3999H66.5007V30.4922H66.4496C66.3445 30.6968 66.2038 30.8772 66.0277 31.0334C65.8516 31.1868 65.6399 31.3076 65.3928 31.3956C65.1456 31.4809 64.8601 31.5235 64.5362 31.5235ZM65.0561 30.2706C65.3232 30.2706 65.5589 30.2181 65.7635 30.113C65.968 30.005 66.1286 29.8601 66.245 29.6783C66.3615 29.4965 66.4197 29.2905 66.4197 29.0604V28.3658C66.3629 28.4027 66.2848 28.4368 66.1854 28.4681C66.0888 28.4965 65.9794 28.5235 65.8572 28.549C65.7351 28.5718 65.6129 28.5931 65.4908 28.613C65.3686 28.63 65.2578 28.6456 65.1584 28.6598C64.9453 28.6911 64.7592 28.7408 64.6001 28.809C64.4411 28.8772 64.3175 28.9695 64.2294 29.086C64.1413 29.1996 64.0973 29.3417 64.0973 29.5121C64.0973 29.7593 64.1868 29.9482 64.3658 30.0789C64.5476 30.2067 64.7777 30.2706 65.0561 30.2706ZM73.1122 24.8544V26.2181H69.1705V24.8544H73.1122ZM70.0653 23.2863H71.8807V29.3885C71.8807 29.5562 71.9063 29.6868 71.9574 29.7806C72.0085 29.8715 72.0795 29.9354 72.1705 29.9723C72.2642 30.0093 72.3722 30.0277 72.4943 30.0277C72.5795 30.0277 72.6648 30.0206 72.75 30.0064C72.8352 29.9894 72.9006 29.9766 72.946 29.9681L73.2315 31.3189C73.1406 31.3473 73.0128 31.38 72.848 31.4169C72.6832 31.4567 72.483 31.4809 72.2472 31.4894C71.8097 31.5064 71.4261 31.4482 71.0966 31.3147C70.7699 31.1812 70.5156 30.9738 70.3338 30.6925C70.152 30.4113 70.0625 30.0562 70.0653 29.6272V23.2863Z" fill="#71717A" fill-opacity="0.6"/>
<path opacity="0.7" d="M83.5 27.3999H276.5" stroke="#71717A"/>
<rect x="25.875" y="88.7749" width="67.25" height="67.25" rx="33.625" fill="#BBF7D0" fill-opacity="0.5"/>
<rect x="25.875" y="88.7749" width="67.25" height="67.25" rx="33.625" stroke="#86EFAC" stroke-width="0.75"/>
<g filter="url(#filter1_d_3640_17180)">
<rect x="37.5" y="100.4" width="44" height="44" rx="22" fill="#C788FF" shape-rendering="crispEdges"/>
<rect x="37.5" y="100.4" width="44" height="44" rx="22" fill="url(#paint0_radial_3640_17180)" shape-rendering="crispEdges"/>
<path d="M57 126.4C55.1833 126.4 53.6458 125.771 52.3875 124.512C51.1292 123.254 50.5 121.717 50.5 119.9C50.5 118.083 51.1292 116.546 52.3875 115.287C53.6458 114.029 55.1833 113.4 57 113.4C58.8167 113.4 60.3542 114.029 61.6125 115.287C62.8708 116.546 63.5 118.083 63.5 119.9C63.5 120.633 63.3833 121.325 63.15 121.975C62.9167 122.625 62.6 123.2 62.2 123.7L67.8 129.3C67.9833 129.483 68.075 129.717 68.075 130C68.075 130.283 67.9833 130.517 67.8 130.7C67.6167 130.883 67.3833 130.975 67.1 130.975C66.8167 130.975 66.5833 130.883 66.4 130.7L60.8 125.1C60.3 125.5 59.725 125.817 59.075 126.05C58.425 126.283 57.7333 126.4 57 126.4ZM57 124.4C58.25 124.4 59.3125 123.962 60.1875 123.087C61.0625 122.212 61.5 121.15 61.5 119.9C61.5 118.65 61.0625 117.587 60.1875 116.712C59.3125 115.837 58.25 115.4 57 115.4C55.75 115.4 54.6875 115.837 53.8125 116.712C52.9375 117.587 52.5 118.65 52.5 119.9C52.5 121.15 52.9375 122.212 53.8125 123.087C54.6875 123.962 55.75 124.4 57 124.4Z" fill="#EDFDF5"/>
</g>
</g>
<defs>
<filter id="filter0_d_3640_17180" x="39.7913" y="28.0164" width="257.418" height="108.767" filterUnits="userSpaceOnUse" color-interpolation-filters="sRGB">
<feFlood flood-opacity="0" result="BackgroundImageFix"/>
<feColorMatrix in="SourceAlpha" type="matrix" values="0 0 0 0 0 0 0 0 0 0 0 0 0 0 0 0 0 0 127 0" result="hardAlpha"/>
<feOffset dx="8" dy="4"/>
<feGaussianBlur stdDeviation="5"/>
<feComposite in2="hardAlpha" operator="out"/>
<feColorMatrix type="matrix" values="0 0 0 0 0 0 0 0 0 0 0 0 0 0 0 0 0 0 0.15 0"/>
<feBlend mode="normal" in2="BackgroundImageFix" result="effect1_dropShadow_3640_17180"/>
<feBlend mode="normal" in="SourceGraphic" in2="effect1_dropShadow_3640_17180" result="shape"/>
</filter>
<filter id="filter1_d_3640_17180" x="27.5" y="94.3999" width="64" height="64" filterUnits="userSpaceOnUse" color-interpolation-filters="sRGB">
<feFlood flood-opacity="0" result="BackgroundImageFix"/>
<feColorMatrix in="SourceAlpha" type="matrix" values="0 0 0 0 0 0 0 0 0 0 0 0 0 0 0 0 0 0 127 0" result="hardAlpha"/>
<feOffset dy="4"/>
<feGaussianBlur stdDeviation="5"/>
<feComposite in2="hardAlpha" operator="out"/>
<feColorMatrix type="matrix" values="0 0 0 0 0 0 0 0 0 0 0 0 0 0 0 0 0 0 0.18 0"/>
<feBlend mode="normal" in2="BackgroundImageFix" result="effect1_dropShadow_3640_17180"/>
<feBlend mode="normal" in="SourceGraphic" in2="effect1_dropShadow_3640_17180" result="shape"/>
</filter>
<radialGradient id="paint0_radial_3640_17180" cx="0" cy="0" r="1" gradientUnits="userSpaceOnUse" gradientTransform="translate(59.5 122.4) scale(38.9163 361.348)">
<stop stop-color="#4ADE80"/>
<stop offset="1" stop-color="#15803D"/>
</radialGradient>
<clipPath id="clip0_3640_17180">
<rect x="0.5" y="0.399902" width="294" height="173" rx="20" fill="white"/>
</clipPath>
</defs>
</svg>
